<svg width="100%" height="14" viewBox="0 0 235 18" fill="none" xmlns="http://www.w3.org/2000/svg">
<path d="M143 9L-6.55651e-07 9" stroke="url(#paint0_linear_265_1053)" stroke-width="2"/>
<rect x="63" y="1" width="16" height="16" rx="8" fill="white" fill-opacity="0.1"/>
<rect x="63" y="1" width="16" height="16" rx="8" fill="#009CFF" fill-opacity="0.18"/>
<rect x="63.4239" y="1.42391" width="15.1522" height="15.1522" rx="7.57609" stroke="url(#paint1_linear_265_1053)" stroke-opacity="0.5" stroke-width="0.847826"/>
<circle cx="71" cy="9" r="3" fill="#4CA3D9"/>
<rect x="89" y="1" width="16" height="16" rx="8" fill="white" fill-opacity="0.1"/>
<rect x="89" y="1" width="16" height="16" rx="8" fill="#009CFF" fill-opacity="0.18"/>
<rect x="89.4239" y="1.42391" width="15.1522" height="15.1522" rx="7.57609" stroke="url(#paint2_linear_265_1053)" stroke-opacity="0.5" stroke-width="0.847826"/>
<circle cx="97" cy="9" r="3" fill="#4CA3D9"/>
<rect x="115" y="1" width="16" height="16" rx="8" fill="white" fill-opacity="0.1"/>
<rect x="115" y="1" width="16" height="16" rx="8" fill="#009CFF" fill-opacity="0.18"/>
<rect x="115.424" y="1.42391" width="15.1522" height="15.1522" rx="7.57609" stroke="url(#paint3_linear_265_1053)" stroke-opacity="0.5" stroke-width="0.847826"/>
<circle cx="123" cy="9" r="3" fill="#4CA3D9"/>
<rect x="141" y="1" width="16" height="16" rx="8" fill="white" fill-opacity="0.1"/>
<rect x="141" y="1" width="16" height="16" rx="8" fill="#009CFF" fill-opacity="0.5"/>
<rect x="141.424" y="1.42391" width="15.1522" height="15.1522" rx="7.57609" stroke="url(#paint4_linear_265_1053)" stroke-opacity="0.5" stroke-width="0.847826"/>
<g filter="url(#filter4_f_265_1053)">
<circle cx="149" cy="9" r="3" fill="#4CA3D9"/>
</g>
<circle cx="149" cy="9" r="3" fill="#4CA3D9"/>
<rect x="167" y="1" width="16" height="16" rx="8" fill="white" fill-opacity="0.06"/>
<rect x="167.424" y="1.42391" width="15.1522" height="15.1522" rx="7.57609" stroke="url(#paint5_linear_265_1053)" stroke-opacity="0.5" stroke-width="0.847826"/>
<rect x="193" y="1" width="16" height="16" rx="8" fill="white" fill-opacity="0.06"/>
<rect x="193.424" y="1.42391" width="15.1522" height="15.1522" rx="7.57609" stroke="url(#paint6_linear_265_1053)" stroke-opacity="0.5" stroke-width="0.847826"/>
<rect x="219" y="1" width="16" height="16" rx="8" fill="white" fill-opacity="0.06"/>
<rect x="219.424" y="1.42391" width="15.1522" height="15.1522" rx="7.57609" stroke="url(#paint7_linear_265_1053)" stroke-opacity="0.5" stroke-width="0.847826"/>
<defs>
<filter id="filter4_f_265_1053" x="140" y="0" width="18" height="18" filterUnits="userSpaceOnUse" color-interpolation-filters="sRGB">
<feFlood flood-opacity="0" result="BackgroundImageFix"/>
<feBlend mode="normal" in="SourceGraphic" in2="BackgroundImageFix" result="shape"/>
<feGaussianBlur stdDeviation="3" result="effect1_foregroundBlur_265_1053"/>
</filter>
<linearGradient id="paint0_linear_265_1053" x1="143" y1="8.5" x2="0" y2="8.5" gradientUnits="userSpaceOnUse">
<stop stop-color="#3F607C"/>
<stop offset="1" stop-color="#3F607C" stop-opacity="0"/>
</linearGradient>
<linearGradient id="paint1_linear_265_1053" x1="71" y1="1" x2="71" y2="17" gradientUnits="userSpaceOnUse">
<stop stop-color="#E5E6EB" stop-opacity="0.15"/>
<stop offset="1" stop-color="#E5E6EB" stop-opacity="0"/>
</linearGradient>
<linearGradient id="paint2_linear_265_1053" x1="97" y1="1" x2="97" y2="17" gradientUnits="userSpaceOnUse">
<stop stop-color="#E5E6EB" stop-opacity="0.15"/>
<stop offset="1" stop-color="#E5E6EB" stop-opacity="0"/>
</linearGradient>
<linearGradient id="paint3_linear_265_1053" x1="123" y1="1" x2="123" y2="17" gradientUnits="userSpaceOnUse">
<stop stop-color="#E5E6EB" stop-opacity="0.15"/>
<stop offset="1" stop-color="#E5E6EB" stop-opacity="0"/>
</linearGradient>
<linearGradient id="paint4_linear_265_1053" x1="149" y1="1" x2="149" y2="17" gradientUnits="userSpaceOnUse">
<stop stop-color="#E5E6EB" stop-opacity="0.15"/>
<stop offset="1" stop-color="#E5E6EB" stop-opacity="0"/>
</linearGradient>
<linearGradient id="paint5_linear_265_1053" x1="175" y1="1" x2="175" y2="17" gradientUnits="userSpaceOnUse">
<stop stop-color="#E5E6EB" stop-opacity="0.15"/>
<stop offset="1" stop-color="#E5E6EB" stop-opacity="0"/>
</linearGradient>
<linearGradient id="paint6_linear_265_1053" x1="201" y1="1" x2="201" y2="17" gradientUnits="userSpaceOnUse">
<stop stop-color="#E5E6EB" stop-opacity="0.15"/>
<stop offset="1" stop-color="#E5E6EB" stop-opacity="0"/>
</linearGradient>
<linearGradient id="paint7_linear_265_1053" x1="227" y1="1" x2="227" y2="17" gradientUnits="userSpaceOnUse">
<stop stop-color="#E5E6EB" stop-opacity="0.15"/>
<stop offset="1" stop-color="#E5E6EB" stop-opacity="0"/>
</linearGradient>
</defs>
</svg>
