<svg width="44" height="44" viewBox="0 0 44 44" fill="none" xmlns="http://www.w3.org/2000/svg">
<circle cx="22" cy="22" r="22" fill="url(#paint0_linear_25_663)"/>
<g filter="url(#filter0_i_25_663)">
<circle cx="22" cy="22" r="14" fill="url(#paint1_radial_25_663)"/>
<circle cx="22" cy="22" r="14" fill="url(#paint2_linear_25_663)" fill-opacity="0.2" style="mix-blend-mode:multiply"/>
</g>
<circle cx="22" cy="22" r="15.3626" stroke="url(#paint3_linear_25_663)" stroke-width="2.72523"/>
<g style="mix-blend-mode:overlay" opacity="0.25">
<circle cx="22" cy="22" r="17.1363" stroke="white" stroke-width="0.272523"/>
</g>
<g clip-path="url(#clip0_25_663)">
<path opacity="0.4" d="M25.5777 28.2343H18.4227C18.1077 28.2343 17.8227 28.0318 17.7177 27.7393L14.5977 19.0018C14.3502 18.3043 15.1452 17.7118 15.7377 18.1393L18.7377 20.2843C19.1352 20.5693 19.7052 20.3968 19.8777 19.9393L21.2952 16.1593C21.5352 15.5068 22.4577 15.5068 22.6977 16.1593L24.1152 19.9393C24.2877 20.4043 24.8502 20.5693 25.2552 20.2843L28.2552 18.1393C28.8552 17.7118 29.6427 18.3118 29.3952 19.0018L26.2752 27.7393C26.1777 28.0318 25.8927 28.2343 25.5777 28.2343Z" fill="white"/>
<path d="M25.75 30.5H18.25C17.9425 30.5 17.6875 30.245 17.6875 29.9375C17.6875 29.63 17.9425 29.375 18.25 29.375H25.75C26.0575 29.375 26.3125 29.63 26.3125 29.9375C26.3125 30.245 26.0575 30.5 25.75 30.5Z" fill="white"/>
<path d="M23.875 25.0625H20.125C19.8175 25.0625 19.5625 24.8075 19.5625 24.5C19.5625 24.1925 19.8175 23.9375 20.125 23.9375H23.875C24.1825 23.9375 24.4375 24.1925 24.4375 24.5C24.4375 24.8075 24.1825 25.0625 23.875 25.0625Z" fill="white"/>
</g>
<defs>
<filter id="filter0_i_25_663" x="5.2749" y="5.2749" width="33.4502" height="33.4502" filterUnits="userSpaceOnUse" color-interpolation-filters="sRGB">
<feFlood flood-opacity="0" result="BackgroundImageFix"/>
<feBlend mode="normal" in="SourceGraphic" in2="BackgroundImageFix" result="shape"/>
<feColorMatrix in="SourceAlpha" type="matrix" values="0 0 0 0 0 0 0 0 0 0 0 0 0 0 0 0 0 0 127 0" result="hardAlpha"/>
<feOffset/>
<feGaussianBlur stdDeviation="6.13176"/>
<feComposite in2="hardAlpha" operator="arithmetic" k2="-1" k3="1"/>
<feColorMatrix type="matrix" values="0 0 0 0 0.0428517 0 0 0 0 0.123627 0 0 0 0 0.130089 0 0 0 1 0"/>
<feBlend mode="normal" in2="shape" result="effect1_innerShadow_25_663"/>
</filter>
<linearGradient id="paint0_linear_25_663" x1="11.3112" y1="3.08888" x2="33.5112" y2="39.2667" gradientUnits="userSpaceOnUse">
<stop stop-color="#EBCC7D"/>
<stop offset="1" stop-color="#92661F"/>
</linearGradient>
<radialGradient id="paint1_radial_25_663" cx="0" cy="0" r="1" gradientUnits="userSpaceOnUse" gradientTransform="translate(22 22) rotate(90) scale(21.8077)">
<stop stop-color="#A87D2D"/>
<stop offset="1" stop-color="#805316"/>
</radialGradient>
<linearGradient id="paint2_linear_25_663" x1="22" y1="8" x2="22" y2="36" gradientUnits="userSpaceOnUse">
<stop stop-opacity="0"/>
<stop offset="1" stop-opacity="0.8"/>
</linearGradient>
<linearGradient id="paint3_linear_25_663" x1="22" y1="8" x2="22" y2="36" gradientUnits="userSpaceOnUse">
<stop stop-color="#92661F"/>
<stop offset="1" stop-color="#E9CA7C"/>
</linearGradient>
<clipPath id="clip0_25_663">
<rect width="18" height="18" fill="white" transform="translate(13 14)"/>
</clipPath>
</defs>
</svg>
