<svg width="128" height="93" viewBox="0 0 128 93" fill="none" xmlns="http://www.w3.org/2000/svg">
<path d="M36.3923 28.8775C29.7673 19.7492 20.8406 7.45336 9.61227 -8.00997C7.43977 -11.005 10.2748 -14.195 13.4373 -14.185C13.9923 -14.1833 21.9914 -14.1816 37.4348 -14.18C38.4764 -14.18 39.4006 -13.91 40.2073 -13.37C40.6839 -13.05 41.3298 -12.3283 42.1448 -11.205C58.5631 11.4217 67.7489 24.0809 69.7023 26.7725C70.3639 27.6842 70.6048 28.6334 70.4248 29.62C70.3148 30.2234 69.8764 31.0392 69.1098 32.0675C68.2481 33.2209 59.2639 45.5959 42.1573 69.1925C41.3156 70.3542 40.6523 71.0909 40.1673 71.4025C39.3689 71.9142 38.4206 72.1717 37.3223 72.175C25.9773 72.1934 17.5506 72.1875 12.0423 72.1575C9.79977 72.145 7.68977 69.885 8.03477 67.565C8.11977 66.985 8.71977 65.975 9.83477 64.535C10.6548 63.4767 19.5064 51.6559 36.3898 29.0725C36.4107 29.0441 36.4222 29.01 36.4226 28.975C36.4231 28.9399 36.4124 28.9058 36.3923 28.8775Z" fill="url(#paint0_linear_378_1101)" fill-opacity="0.1"/>
<path d="M13.436 -13.8383C13.9917 -13.8366 21.9923 -13.8351 37.4351 -13.8334C38.2911 -13.8334 39.0534 -13.6399 39.73 -13.2573L40.0142 -13.0825C40.4343 -12.8004 41.0492 -12.1255 41.8647 -11.0014C58.2827 11.6247 67.4678 24.2842 69.4214 26.9761C70.035 27.8216 70.2443 28.6765 70.0835 29.5582C69.9888 30.0772 69.5943 30.838 68.8325 31.8599C67.9689 33.0159 58.9815 45.3944 41.8765 68.9888C41.1387 70.0071 40.5649 70.6602 40.1489 70.9898L39.98 71.1109C39.3373 71.5227 38.5821 71.7608 37.7046 71.816L37.3208 71.8287C25.9766 71.847 17.5513 71.8411 12.0444 71.8111C11.0375 71.8055 10.0378 71.2922 9.32666 70.4957C8.61662 69.7003 8.22291 68.655 8.37744 67.6158V67.6148C8.40975 67.3952 8.55098 67.0463 8.84619 66.5494C9.13612 66.0613 9.55599 65.4617 10.1089 64.7476C10.9313 63.6862 19.7861 51.8606 36.6675 29.2798L36.6685 29.2779C36.7319 29.1916 36.7677 29.087 36.769 28.9791C36.7704 28.8712 36.7375 28.765 36.6743 28.6763L36.6724 28.6744L9.89307 -8.21332C8.90012 -9.58219 9.05379 -10.9659 9.80615 -12.0239C10.5723 -13.1011 11.9654 -13.8429 13.436 -13.8383Z" stroke="url(#paint1_linear_378_1101)" stroke-opacity="0.05" stroke-width="0.692997"/>
<path d="M85.9225 28.88C79.2975 19.7516 70.3708 7.45664 59.1425 -8.00503C56.97 -11 59.805 -14.19 62.9675 -14.18C63.5225 -14.1784 71.5216 -14.1775 86.965 -14.1775C88.0066 -14.1775 88.9308 -13.9075 89.7375 -13.3675C90.2142 -13.0475 90.86 -12.3259 91.675 -11.2025C108.093 11.4241 117.279 24.0833 119.232 26.775C119.894 27.6866 120.135 28.6358 119.955 29.6225C119.845 30.2258 119.407 31.0416 118.64 32.07C117.778 33.2233 108.794 45.5983 91.6875 69.195C90.8458 70.3566 90.1825 71.0933 89.6975 71.405C88.8992 71.9166 87.9508 72.1741 86.8525 72.1775C75.5092 72.1958 67.0833 72.19 61.575 72.16C59.3325 72.1475 57.2225 69.8875 57.5675 67.5675C57.6525 66.9875 58.2525 65.9775 59.3675 64.5375C60.1875 63.4791 69.0383 51.6583 85.92 29.075C85.9409 29.0466 85.9524 29.0124 85.9528 28.9774C85.9533 28.9424 85.9427 28.9083 85.9225 28.88Z" fill="url(#paint2_linear_378_1101)" fill-opacity="0.1"/>
<path d="M62.9668 -13.8334C63.5255 -13.8317 71.5255 -13.8314 86.9648 -13.8314C87.9429 -13.8314 88.7986 -13.5782 89.5439 -13.0795C89.964 -12.7975 90.5791 -12.1233 91.3945 -10.9994C107.813 11.6268 116.999 24.2861 118.952 26.9781C119.566 27.8236 119.775 28.6786 119.614 29.5602C119.531 30.0144 119.218 30.654 118.631 31.4918L118.362 31.8629C117.497 33.0205 108.511 45.3991 91.4072 68.9918C90.5645 70.155 89.9345 70.8403 89.5107 71.1129C88.8681 71.5248 88.1128 71.7637 87.2354 71.819L86.8516 71.8307C75.5088 71.849 67.0841 71.8431 61.5771 71.8131C60.5703 71.8075 59.5705 71.2951 58.8594 70.4987C58.1494 69.7033 57.7558 68.6579 57.9102 67.6188V67.6178C57.9423 67.3982 58.0837 67.0494 58.3789 66.5524C58.5963 66.1863 58.8872 65.7572 59.252 65.2643L59.6416 64.7496C60.4647 63.6873 69.3185 51.8623 86.1973 29.2828L86.1992 29.2799C86.2625 29.1938 86.2974 29.0898 86.2988 28.9821C86.3002 28.8742 86.2681 28.7679 86.2051 28.6793L86.2031 28.6764L59.4229 -8.20837C58.4299 -9.57724 58.5845 -10.961 59.3369 -12.0189C60.1031 -13.0961 61.4962 -13.838 62.9668 -13.8334Z" stroke="url(#paint3_linear_378_1101)" stroke-opacity="0.05" stroke-width="0.692997"/>
<defs>
<linearGradient id="paint0_linear_378_1101" x1="39.24" y1="-14.185" x2="39.24" y2="72.1855" gradientUnits="userSpaceOnUse">
<stop stop-color="white"/>
<stop offset="1" stop-color="white" stop-opacity="0"/>
</linearGradient>
<linearGradient id="paint1_linear_378_1101" x1="50.9273" y1="-14.1277" x2="28.2606" y2="7.99706" gradientUnits="userSpaceOnUse">
<stop stop-color="#F8F8F8"/>
<stop offset="0.254575" stop-color="#F8F8F8" stop-opacity="0"/>
</linearGradient>
<linearGradient id="paint2_linear_378_1101" x1="88.7715" y1="-14.1801" x2="88.7715" y2="72.1879" gradientUnits="userSpaceOnUse">
<stop stop-color="white"/>
<stop offset="1" stop-color="white" stop-opacity="0"/>
</linearGradient>
<linearGradient id="paint3_linear_378_1101" x1="100.458" y1="-14.1227" x2="77.7923" y2="8.00111" gradientUnits="userSpaceOnUse">
<stop stop-color="#F8F8F8"/>
<stop offset="0.254575" stop-color="#F8F8F8" stop-opacity="0"/>
</linearGradient>
</defs>
</svg>
