<svg width="44" height="44" viewBox="0 0 44 44" fill="none" xmlns="http://www.w3.org/2000/svg">
<circle cx="22" cy="22" r="22" fill="url(#paint0_linear_321_1279)"/>
<g filter="url(#filter0_i_321_1279)">
<circle cx="22" cy="22" r="14" fill="url(#paint1_radial_321_1279)"/>
<circle cx="22" cy="22" r="14" fill="url(#paint2_radial_321_1279)" fill-opacity="0.29"/>
<circle cx="22" cy="22" r="14" fill="url(#paint3_linear_321_1279)" fill-opacity="0.2" style="mix-blend-mode:multiply"/>
</g>
<circle cx="22" cy="22" r="15.3626" stroke="url(#paint4_linear_321_1279)" stroke-width="2.72523"/>
<g style="mix-blend-mode:overlay" opacity="0.25">
<circle cx="22" cy="22" r="17.1363" stroke="white" stroke-width="0.272523"/>
</g>
<g clip-path="url(#clip0_321_1279)">
<path opacity="0.4" d="M15.7524 15.875V24.8525C15.7524 25.5875 16.0974 26.285 16.6899 26.7275L20.5974 29.6525C21.4299 30.275 22.5774 30.275 23.4099 29.6525L27.3174 26.7275C27.9099 26.285 28.2549 25.5875 28.2549 24.8525V15.875H15.7524Z" fill="white"/>
<path d="M29.5 16.4375H14.5C14.1925 16.4375 13.9375 16.1825 13.9375 15.875C13.9375 15.5675 14.1925 15.3125 14.5 15.3125H29.5C29.8075 15.3125 30.0625 15.5675 30.0625 15.875C30.0625 16.1825 29.8075 16.4375 29.5 16.4375Z" fill="white"/>
<path d="M25 20.5625H19C18.6925 20.5625 18.4375 20.3075 18.4375 20C18.4375 19.6925 18.6925 19.4375 19 19.4375H25C25.3075 19.4375 25.5625 19.6925 25.5625 20C25.5625 20.3075 25.3075 20.5625 25 20.5625Z" fill="white"/>
<path d="M25 24.3125H19C18.6925 24.3125 18.4375 24.0575 18.4375 23.75C18.4375 23.4425 18.6925 23.1875 19 23.1875H25C25.3075 23.1875 25.5625 23.4425 25.5625 23.75C25.5625 24.0575 25.3075 24.3125 25 24.3125Z" fill="white"/>
</g>
<defs>
<filter id="filter0_i_321_1279" x="5.27478" y="5.27477" width="33.4504" height="33.4505" filterUnits="userSpaceOnUse" color-interpolation-filters="sRGB">
<feFlood flood-opacity="0" result="BackgroundImageFix"/>
<feBlend mode="normal" in="SourceGraphic" in2="BackgroundImageFix" result="shape"/>
<feColorMatrix in="SourceAlpha" type="matrix" values="0 0 0 0 0 0 0 0 0 0 0 0 0 0 0 0 0 0 127 0" result="hardAlpha"/>
<feOffset/>
<feGaussianBlur stdDeviation="6.13176"/>
<feComposite in2="hardAlpha" operator="arithmetic" k2="-1" k3="1"/>
<feColorMatrix type="matrix" values="0 0 0 0 0.0428517 0 0 0 0 0.123627 0 0 0 0 0.130089 0 0 0 1 0"/>
<feBlend mode="normal" in2="shape" result="effect1_innerShadow_321_1279"/>
</filter>
<linearGradient id="paint0_linear_321_1279" x1="11.3112" y1="3.08888" x2="33.5112" y2="39.2667" gradientUnits="userSpaceOnUse">
<stop stop-color="#64C0F9"/>
<stop offset="1" stop-color="#0C3B58"/>
</linearGradient>
<radialGradient id="paint1_radial_321_1279" cx="0" cy="0" r="1" gradientUnits="userSpaceOnUse" gradientTransform="translate(22 22) rotate(90) scale(21.8077)">
<stop stop-color="#3081B4"/>
<stop offset="1" stop-color="#0E425A"/>
</radialGradient>
<radialGradient id="paint2_radial_321_1279" cx="0" cy="0" r="1" gradientUnits="userSpaceOnUse" gradientTransform="translate(15.8077 16.8846) rotate(-44.2462) scale(14.4697 7.68008)">
<stop stop-color="#115A63"/>
<stop offset="1" stop-color="#2E5652" stop-opacity="0"/>
</radialGradient>
<linearGradient id="paint3_linear_321_1279" x1="22" y1="8" x2="22" y2="36" gradientUnits="userSpaceOnUse">
<stop stop-opacity="0"/>
<stop offset="1" stop-opacity="0.8"/>
</linearGradient>
<linearGradient id="paint4_linear_321_1279" x1="22" y1="8" x2="22" y2="36" gradientUnits="userSpaceOnUse">
<stop stop-color="#132632"/>
<stop offset="1" stop-color="#5FB9F2"/>
</linearGradient>
<clipPath id="clip0_321_1279">
<rect width="18" height="18" fill="white" transform="translate(13 14)"/>
</clipPath>
</defs>
</svg>
