<svg width="16" height="16" viewBox="0 0 16 16" fill="none" xmlns="http://www.w3.org/2000/svg">
<path fill-rule="evenodd" clip-rule="evenodd" d="M8.0001 14.4C9.69748 14.4 11.3253 13.7257 12.5256 12.5255C13.7258 11.3252 14.4001 9.69736 14.4001 7.99998C14.4001 6.30259 13.7258 4.67472 12.5256 3.47449C11.3253 2.27426 9.69748 1.59998 8.0001 1.59998C6.30271 1.59998 4.67485 2.27426 3.47461 3.47449C2.27438 4.67472 1.6001 6.30259 1.6001 7.99998C1.6001 9.69736 2.27438 11.3252 3.47461 12.5255C4.67485 13.7257 6.30271 14.4 8.0001 14.4ZM11.0857 6.55278C11.132 6.48901 11.1653 6.41673 11.1837 6.34009C11.2021 6.26344 11.2053 6.18392 11.1929 6.10607C11.1806 6.02822 11.1531 5.95356 11.1119 5.88635C11.0707 5.81914 11.0167 5.76071 10.9529 5.71438C10.8891 5.66805 10.8169 5.63473 10.7402 5.61633C10.6636 5.59793 10.584 5.59481 10.5062 5.60714C10.4283 5.61947 10.3537 5.64701 10.2865 5.6882C10.2193 5.72939 10.1608 5.78341 10.1145 5.84718L7.3281 9.67918L5.8241 8.17518C5.76872 8.1179 5.70249 8.07222 5.62928 8.04081C5.55606 8.0094 5.47732 7.99288 5.39765 7.99223C5.31799 7.99157 5.23898 8.00679 5.16526 8.037C5.09154 8.0672 5.02457 8.11178 4.96826 8.16814C4.91195 8.22451 4.86743 8.29152 4.8373 8.36527C4.80716 8.43902 4.79202 8.51804 4.79275 8.5977C4.79348 8.67737 4.81007 8.75609 4.84155 8.82928C4.87303 8.90247 4.91877 8.96865 4.9761 9.02397L6.9761 11.024C7.0374 11.0853 7.11127 11.1326 7.19261 11.1627C7.27396 11.1927 7.36085 11.2048 7.44731 11.198C7.53376 11.1912 7.61772 11.1658 7.6934 11.1235C7.76908 11.0811 7.83469 11.0229 7.8857 10.9528L11.0857 6.55278Z" fill="#68C5FF"/>
</svg>
