<svg width="16" height="16" viewBox="0 0 16 16" fill="none" xmlns="http://www.w3.org/2000/svg">
<path fill-rule="evenodd" clip-rule="evenodd" d="M8.0001 14.4C9.69748 14.4 11.3253 13.7257 12.5256 12.5255C13.7258 11.3252 14.4001 9.69736 14.4001 7.99998C14.4001 6.30259 13.7258 4.67472 12.5256 3.47449C11.3253 2.27426 9.69748 1.59998 8.0001 1.59998C6.30271 1.59998 4.67485 2.27426 3.47461 3.47449C2.27438 4.67472 1.6001 6.30259 1.6001 7.99998C1.6001 9.69736 2.27438 11.3252 3.47461 12.5255C4.67485 13.7257 6.30271 14.4 8.0001 14.4ZM6.6241 5.77598C6.51036 5.66999 6.35992 5.61229 6.20448 5.61504C6.04904 5.61778 5.90073 5.68075 5.7908 5.79068C5.68087 5.90061 5.6179 6.04892 5.61516 6.20436C5.61241 6.3598 5.67011 6.51024 5.7761 6.62398L7.1521 7.99998L5.7761 9.37598C5.71715 9.4309 5.66987 9.49715 5.63707 9.57074C5.60428 9.64434 5.58665 9.72379 5.58522 9.80436C5.5838 9.88492 5.59862 9.96494 5.6288 10.0397C5.65898 10.1144 5.70389 10.1822 5.76087 10.2392C5.81784 10.2962 5.88571 10.3411 5.96042 10.3713C6.03513 10.4015 6.11515 10.4163 6.19572 10.4148C6.27628 10.4134 6.35573 10.3958 6.42933 10.363C6.50293 10.3302 6.56917 10.2829 6.6241 10.224L8.0001 8.84798L9.3761 10.224C9.43103 10.2829 9.49727 10.3302 9.57087 10.363C9.64447 10.3958 9.72392 10.4134 9.80448 10.4148C9.88504 10.4163 9.96507 10.4015 10.0398 10.3713C10.1145 10.3411 10.1824 10.2962 10.2393 10.2392C10.2963 10.1822 10.3412 10.1144 10.3714 10.0397C10.4016 9.96494 10.4164 9.88492 10.415 9.80436C10.4135 9.72379 10.3959 9.64434 10.3631 9.57074C10.3303 9.49715 10.283 9.4309 10.2241 9.37598L8.8481 7.99998L10.2241 6.62398C10.3301 6.51024 10.3878 6.3598 10.385 6.20436C10.3823 6.04892 10.3193 5.90061 10.2094 5.79068C10.0995 5.68075 9.95116 5.61778 9.79571 5.61504C9.64027 5.61229 9.48984 5.66999 9.3761 5.77598L8.0001 7.15198L6.6241 5.77598Z" fill="#D77C7D"/>
</svg>
