<svg width="116" height="99" viewBox="0 0 116 99" fill="none" xmlns="http://www.w3.org/2000/svg">
<path d="M122.954 -0.548743C122.989 -0.40302 123 -0.252994 123 -0.103202C122.964 0.73638 122.669 1.47824 122.114 2.12239C78.2578 53.1196 55.6859 79.3717 54.3984 80.8789C53.5359 81.8874 52.2727 82.2344 51.0375 81.8428C50.6813 81.7302 50.0703 81.2588 49.2047 80.4286C48.7031 79.9471 33.5727 65.6148 3.81328 37.4317C3.45777 37.0953 3.20495 36.5722 3.0548 35.8625C3.01345 35.667 3 35.4669 3 35.2671C3.075 34.426 3.44219 33.6567 4.10156 32.9594C13.1969 23.3379 17.8039 18.4622 17.9227 18.3324C18.6102 17.5913 19.1539 17.1504 19.5539 17.0097C20.6273 16.6298 21.9492 16.7635 22.8234 17.589C25.5234 20.139 33.6203 27.8063 47.1141 40.5907C48.2953 41.7117 48.9117 42.352 50.4117 42.1761C51.6141 42.033 52.0758 41.4115 52.9664 40.375C71.9258 18.3332 87.8469 -0.179031 100.73 -15.1617C101.5 -16.0576 102.063 -16.5798 102.42 -16.7283C103.528 -17.1903 104.815 -17.0801 105.769 -16.2663C106.964 -15.2454 112.287 -10.666 121.739 -2.52814C122.363 -1.99148 122.768 -1.33168 122.954 -0.548743Z" fill="url(#paint0_linear_48_1825)" fill-opacity="0.1"/>
<path d="M102.553 -16.4082C103.558 -16.827 104.703 -16.7207 105.544 -16.0029C106.739 -14.9824 112.061 -10.4035 121.513 -2.26562C122.082 -1.77545 122.448 -1.17897 122.617 -0.46875C122.644 -0.357889 122.653 -0.236577 122.653 -0.103516C122.618 0.651259 122.353 1.31435 121.852 1.89648C77.9978 52.8908 55.4247 79.1433 54.1348 80.6533C53.3635 81.5551 52.2459 81.8624 51.1426 81.5127H51.1416C51.025 81.4758 50.8234 81.3623 50.5234 81.1309C50.2316 80.9057 49.8725 80.5893 49.4443 80.1787C48.9386 79.6932 33.8069 65.3587 4.05176 37.1797C3.76657 36.9098 3.53578 36.4632 3.39355 35.791C3.35959 35.6304 3.34722 35.4599 3.34668 35.2793C3.41752 34.5333 3.74505 33.8407 4.35352 33.1973C13.4463 23.5784 18.0565 18.698 18.1777 18.5654C18.514 18.203 18.81 17.9212 19.0645 17.7148C19.3227 17.5054 19.5229 17.3883 19.6689 17.3369L19.6699 17.3359C20.6496 16.9894 21.8267 17.1239 22.5859 17.8408C25.2859 20.3908 33.3825 28.0576 46.876 40.8418C47.4524 41.3889 47.9369 41.8667 48.4717 42.1709C49.0326 42.4899 49.6379 42.616 50.4521 42.5205H50.4531C51.1176 42.4414 51.5944 42.2246 52.0225 41.8809C52.4313 41.5525 52.7967 41.1043 53.2295 40.6006C72.1886 18.5591 88.1095 0.047044 100.992 -14.9355C101.373 -15.3782 101.697 -15.7219 101.966 -15.9707C102.241 -16.2258 102.434 -16.3584 102.553 -16.4082Z" stroke="url(#paint1_linear_48_1825)" stroke-opacity="0.05" stroke-width="0.692997"/>
<defs>
<linearGradient id="paint0_linear_48_1825" x1="63" y1="-17" x2="63" y2="82" gradientUnits="userSpaceOnUse">
<stop stop-color="white"/>
<stop offset="1" stop-color="white" stop-opacity="0"/>
</linearGradient>
<linearGradient id="paint1_linear_48_1825" x1="85.445" y1="-16.9343" x2="62.3117" y2="20.898" gradientUnits="userSpaceOnUse">
<stop stop-color="#F8F8F8"/>
<stop offset="0.254575" stop-color="#F8F8F8" stop-opacity="0"/>
</linearGradient>
</defs>
</svg>
