<svg width="16" height="16" viewBox="0 0 16 16" fill="none" xmlns="http://www.w3.org/2000/svg">
<g clip-path="url(#clip0_1_3991)">
<path d="M7.53208 15.3628L7.64423 8.50075V1.89655C7.64423 1.23838 8.44274 0.89955 8.90629 1.36582L14.6274 7.11844C15.091 7.58471 14.771 8.3883 14.0996 8.3883H9.06629C8.50704 8.3883 8.21994 9.07946 8.61919 9.48126L14.9145 15.8126C15.3138 16.2144 16.0016 15.925 16.0016 15.3628V1.05997C16.0016 0.464768 15.5216 0 14.9474 0H0.708906C0.0375043 0 -0.249599 0.691154 0.261803 1.09295L6.27003 7.13493C6.73358 7.6012 6.41358 8.4048 5.74218 8.4048H0.708906C0.0375043 8.4048 -0.249599 9.09595 0.261803 9.49775L6.55713 15.8126C6.84423 16.2144 7.53208 15.925 7.53208 15.3628Z" fill="white"/>
</g>
<defs>
<clipPath id="clip0_1_3991">
<rect width="16" height="16" fill="white"/>
</clipPath>
</defs>
</svg>
