<svg width="101" height="101" viewBox="0 0 101 101" fill="none" xmlns="http://www.w3.org/2000/svg">
<g clip-path="url(#clip0_302_329)">
<path d="M35.784 48.7451C34.8639 48.6539 33.9499 48.4907 33.0507 48.255L20.5276 35.8174C20.2858 34.9201 20.1162 34.007 20.0187 33.0879L35.784 48.7451Z" fill="#4CAF50"/>
<path d="M40.1535 48.6365C39.473 48.7385 38.7874 48.8004 38.101 48.8224L19.9255 30.7712C19.9429 30.0846 20.0002 29.3989 20.0974 28.7177L40.1535 48.6365Z" fill="#4CAF50"/>
<path d="M43.7074 47.7178C43.1491 47.9264 42.5825 48.1057 42.0097 48.2556L20.4654 26.859C20.6115 26.2851 20.7869 25.7171 20.9916 25.1574L43.7074 47.7178Z" fill="#4CAF50"/>
<path d="M46.7128 46.2542C46.2419 46.5421 45.7606 46.8059 45.2701 47.0458L21.653 23.59C21.8894 23.0982 22.1499 22.6149 22.4347 22.1422L46.7128 46.2542Z" fill="#4CAF50"/>
<path d="M49.2725 44.3482C48.8748 44.7042 48.4651 45.0391 48.0444 45.3528L23.3269 20.8041C23.6377 20.3814 23.9698 19.9693 24.3231 19.5694L49.2725 44.3482Z" fill="#4CAF50"/>
<path d="M51.4289 42.0413C51.107 42.4538 50.7642 42.8553 50.4003 43.2441L25.4194 18.434C25.8059 18.0675 26.2048 17.7219 26.615 17.3971L51.4289 42.0413Z" fill="#4CAF50"/>
<path d="M53.173 39.325C52.924 39.8054 52.6513 40.2766 52.3549 40.7371L27.913 16.4621C28.3714 16.1627 28.8407 15.8868 29.3192 15.6345L53.173 39.325Z" fill="#4CAF50"/>
<path d="M54.4456 36.1406C54.2834 36.7002 54.0931 37.2529 53.8741 37.7974L30.8422 14.9228C31.3849 14.7003 31.9365 14.5061 32.4949 14.34L54.4456 36.1406Z" fill="#4CAF50"/>
<path d="M55.1075 32.3497C55.0652 33.0147 54.985 33.6778 54.8676 34.3356L34.2971 13.9058C34.9539 13.7837 35.6164 13.6991 36.2811 13.652L55.1075 32.3497Z" fill="#4CAF50"/>
<path d="M54.7606 27.5567C54.9402 28.4056 55.0567 29.2651 55.11 30.1279L38.5028 13.6344C39.366 13.6818 40.2264 13.7924 41.0764 13.9662L54.7606 27.5567Z" fill="#4CAF50"/>
<path d="M44.3204 14.9637C46.3618 15.8155 48.2761 17.0686 49.9423 18.7236C51.6088 20.3785 52.8751 22.284 53.7408 24.3198L44.3204 14.9637Z" fill="#4CAF50"/>
<path d="M21.9673 39.4714L29.3869 46.8403C27.8534 46.0402 26.4128 44.9987 25.1211 43.716C23.8293 42.4329 22.778 40.9994 21.9673 39.4714Z" fill="#4CAF50"/>
<path d="M113.595 155.407C112.913 155.271 112.235 155.117 111.562 154.946L83.1091 101.464C83.344 100.81 83.5952 100.162 83.8628 99.52L113.595 155.407Z" fill="#4CAF50"/>
<path d="M117.482 155.994C116.841 155.929 116.202 155.848 115.566 155.752L84.6781 97.6926C84.9546 97.1115 85.2446 96.5368 85.5486 95.9686L117.482 155.994Z" fill="#4CAF50"/>
<path d="M121.168 156.204C120.561 156.196 119.954 156.176 119.348 156.142L86.4689 94.3384C86.7789 93.817 87.1011 93.3022 87.4351 92.7944L121.168 156.204Z" fill="#4CAF50"/>
<path d="M124.684 156.093C124.105 156.136 123.526 156.167 122.946 156.185L88.4435 91.3299C88.7825 90.8602 89.1319 90.3969 89.492 89.9405L124.684 156.093Z" fill="#4CAF50"/>
<path d="M128.05 155.699C127.496 155.787 126.941 155.864 126.385 155.929L90.5778 88.6215C90.9423 88.1973 91.316 87.78 91.6992 87.3697L128.05 155.699Z" fill="#4CAF50"/>
<path d="M131.279 155.048C130.747 155.178 130.215 155.297 129.681 155.404L92.855 86.1817C93.2423 85.7992 93.6384 85.4236 94.0433 85.0553L131.279 155.048Z" fill="#4CAF50"/>
<path d="M134.381 154.159C133.871 154.327 133.359 154.485 132.846 154.633L95.2632 83.9888C95.6722 83.645 96.0892 83.3086 96.514 82.9797L134.381 154.159Z" fill="#4CAF50"/>
<path d="M137.363 153.044C136.873 153.25 136.381 153.445 135.887 153.629L97.7948 82.0272C98.224 81.7207 98.6609 81.4215 99.105 81.1295L137.363 153.044Z" fill="#4CAF50"/>
<path d="M140.23 151.713C139.759 151.954 139.286 152.184 138.811 152.405L100.444 80.2865C100.893 80.0157 101.348 79.7521 101.811 79.4965L140.23 151.713Z" fill="#4CAF50"/>
<path d="M47.3438 18.9375C31.6572 18.9375 18.9375 24.5872 18.9375 31.5625H25.2816C26.1653 29.7003 33.8034 25.25 47.3438 25.25C60.8841 25.25 68.5222 29.7003 69.4059 31.5625C68.68 33.0775 63.5037 36.2969 54.3191 37.4647C56.8441 38.9481 58.9587 40.7156 60.4738 42.7356C62.4937 42.2622 64.3875 41.6941 66.0919 41.0312C67.3228 40.5578 68.4243 40.0528 69.4375 39.4847V50.5C68.9956 51.4469 66.8494 53.025 63.125 54.3506V60.9819C64.1666 60.6631 65.145 60.3507 66.0919 59.9719C67.3228 59.4985 68.4243 58.9935 69.4375 58.4253V69.4375C68.9956 70.3844 66.8494 71.9625 63.125 73.2881V79.9478C70.7316 77.6753 75.75 73.8247 75.75 69.4375V31.5625C75.75 24.5872 63.0303 18.9375 47.3438 18.9375Z" fill="black"/>
<path d="M66.2812 0C50.5947 0 37.875 5.64969 37.875 12.625H44.2191C45.1028 10.7628 52.7409 6.3125 66.2812 6.3125C79.8216 6.3125 87.4597 10.7628 88.3434 12.625C87.6175 14.14 82.4412 17.3594 73.2566 18.5272C75.7816 20.0106 77.8962 21.7781 79.4113 23.7981C81.4312 23.3247 83.325 22.7566 85.0294 22.0937C86.2603 21.6203 87.365 21.1153 88.375 20.5472V31.5625C87.9331 32.5094 85.7869 34.0875 82.0625 35.4131V42.0412C83.1041 41.7256 84.0825 41.41 85.0294 41.0312C86.2603 40.5578 87.3618 40.0528 88.375 39.4847V50.5C87.9331 51.4469 85.7869 53.025 82.0625 54.3506V61.0103C89.6691 58.7378 94.6875 54.8872 94.6875 50.5V12.625C94.6875 5.64969 81.9678 0 66.2812 0Z" fill="black"/>
<path d="M28.4062 37.875C12.7197 37.875 0 43.5247 0 50.5V88.375C0 95.3503 12.7197 101 28.4062 101C44.0928 101 56.8125 95.3503 56.8125 88.375V50.5C56.8125 43.5247 44.0928 37.875 28.4062 37.875ZM28.4062 44.1875C41.9466 44.1875 49.5847 48.6378 50.4684 50.5C49.5847 52.3622 41.9466 56.8125 28.4062 56.8125C14.8659 56.8125 7.22781 52.3622 6.34406 50.5C7.22781 48.6378 14.8659 44.1875 28.4062 44.1875ZM50.5 88.375C49.6162 90.2372 41.9466 94.6875 28.4062 94.6875C14.8659 94.6875 7.19625 90.2372 6.3125 88.375V77.3597C7.3225 77.9278 8.42719 78.4328 9.65812 78.9062C14.645 80.8631 21.2416 82.0625 28.4062 82.0625C35.5709 82.0625 42.1675 80.8631 47.1544 78.9062C48.3853 78.4328 49.49 77.9278 50.5 77.3597V88.375ZM50.5 69.4375C49.6162 71.2997 41.9466 75.75 28.4062 75.75C14.8659 75.75 7.19625 71.2997 6.3125 69.4375V58.4222C7.3225 58.9903 8.42719 59.4953 9.65812 59.9688C14.645 61.9256 21.2416 63.125 28.4062 63.125C35.5709 63.125 42.1675 61.9256 47.1544 59.9688C48.3853 59.4953 49.49 58.9903 50.5 58.4222V69.4375Z" fill="black"/>
</g>
<defs>
<clipPath id="clip0_302_329">
<rect width="101" height="101" fill="white"/>
</clipPath>
</defs>
</svg>
