<svg width="16" height="16" viewBox="0 0 16 16" fill="none" xmlns="http://www.w3.org/2000/svg">
<g opacity="0.5">
<path fill-rule="evenodd" clip-rule="evenodd" d="M4.17602 6.57601C4.28852 6.46365 4.44102 6.40053 4.60002 6.40053C4.75902 6.40053 4.91152 6.46365 5.02402 6.57601L8.00002 9.55201L10.976 6.57601C11.031 6.51706 11.0972 6.46978 11.1708 6.43698C11.2444 6.40419 11.3238 6.38656 11.4044 6.38513C11.485 6.38371 11.565 6.39853 11.6397 6.42871C11.7144 6.45889 11.7823 6.5038 11.8393 6.56078C11.8962 6.61775 11.9411 6.68562 11.9713 6.76033C12.0015 6.83504 12.0163 6.91506 12.0149 6.99562C12.0135 7.07619 11.9958 7.15564 11.963 7.22924C11.9303 7.30284 11.883 7.36908 11.824 7.42401L8.42402 10.824C8.31152 10.9364 8.15902 10.9995 8.00002 10.9995C7.84102 10.9995 7.68852 10.9364 7.57602 10.824L4.17602 7.42401C4.06366 7.31151 4.00055 7.15901 4.00055 7.00001C4.00055 6.84101 4.06366 6.68851 4.17602 6.57601Z" fill="white"/>
</g>
</svg>
