<svg width="16" height="16" viewBox="0 0 16 16" fill="none" xmlns="http://www.w3.org/2000/svg">
<path fill-rule="evenodd" clip-rule="evenodd" d="M5.02406 4.17601C5.13642 4.28851 5.19953 4.44101 5.19953 4.60001C5.19953 4.75901 5.13642 4.91151 5.02406 5.02401L2.04806 8.00001L5.02406 10.976C5.13004 11.0897 5.18774 11.2402 5.185 11.3956C5.18226 11.5511 5.11929 11.6994 5.00936 11.8093C4.89943 11.9192 4.75112 11.9822 4.59568 11.9849C4.44024 11.9877 4.2898 11.93 4.17606 11.824L0.776058 8.42401C0.663698 8.31151 0.600586 8.15901 0.600586 8.00001C0.600586 7.84101 0.663698 7.68851 0.776058 7.57601L4.17606 4.17601C4.28856 4.06365 4.44106 4.00054 4.60006 4.00054C4.75906 4.00054 4.91156 4.06365 5.02406 4.17601ZM10.9761 4.17601C11.0886 4.06365 11.2411 4.00054 11.4001 4.00054C11.5591 4.00054 11.7116 4.06365 11.8241 4.17601L15.2241 7.57601C15.3364 7.68851 15.3995 7.84101 15.3995 8.00001C15.3995 8.15901 15.3364 8.31151 15.2241 8.42401L11.8241 11.824C11.7103 11.93 11.5599 11.9877 11.4044 11.9849C11.249 11.9822 11.1007 11.9192 10.9908 11.8093C10.8808 11.6994 10.8179 11.5511 10.8151 11.3956C10.8124 11.2402 10.8701 11.0897 10.9761 10.976L13.9521 8.00001L10.9761 5.02401C10.8637 4.91151 10.8006 4.75901 10.8006 4.60001C10.8006 4.44101 10.8637 4.28851 10.9761 4.17601ZM9.10166 1.60881C9.17937 1.62216 9.25368 1.6507 9.32035 1.6928C9.38703 1.73489 9.44475 1.78971 9.49022 1.85413C9.53569 1.91855 9.56802 1.99129 9.58535 2.06821C9.60269 2.14513 9.6047 2.22471 9.59126 2.30241L7.59126 13.9024C7.56217 14.0573 7.47332 14.1945 7.34389 14.2844C7.21446 14.3743 7.05485 14.4097 6.89955 14.3829C6.74425 14.3561 6.60573 14.2693 6.51391 14.1412C6.4221 14.0132 6.38436 13.8541 6.40886 13.6984L8.40886 2.09841C8.43584 1.94163 8.52397 1.80198 8.65389 1.71017C8.78381 1.61836 8.94487 1.5819 9.10166 1.60881Z" fill="white"/>
</svg>
