<svg width="14" height="16" viewBox="0 0 14 16" fill="none" xmlns="http://www.w3.org/2000/svg">
<path d="M12.4326 9.00808L12.4389 6.71497L12.4452 4.42187C12.4479 3.40151 11.8095 2.64681 10.8575 2.81163C10.6693 2.84416 10.3609 2.94446 10.1985 3.03392L9.30713 3.52458L7.59391 1.30331C7.30632 0.930515 6.86895 0.713196 6.40625 0.713196C5.94355 0.713196 5.50618 0.930515 5.21859 1.30331L1.64982 5.93127C0.806311 6.98268 0.344686 8.30314 0.344083 9.66627C0.344083 12.9979 3.06257 15.6903 6.40625 15.6903C9.74993 15.6903 12.4684 12.9979 12.4684 9.66627C12.4684 9.44507 12.4563 9.22549 12.4326 9.00808Z" fill="url(#paint0_linear_265_1047)"/>
<circle cx="6.40622" cy="9.62814" r="2.49619" fill="white"/>
<defs>
<linearGradient id="paint0_linear_265_1047" x1="11.5555" y1="8.00001" x2="0.344083" y2="8.20175" gradientUnits="userSpaceOnUse">
<stop stop-color="#156190"/>
<stop offset="1" stop-color="#68C5FF"/>
</linearGradient>
</defs>
</svg>
