<svg width="18" height="18" viewBox="0 0 18 18" fill="none" xmlns="http://www.w3.org/2000/svg">
<path d="M9 16.5C8.675 16.5 8.38125 16.4219 8.11875 16.2656C7.85625 16.1094 7.65 15.9 7.5 15.6375C7.0875 15.6375 6.73438 15.4906 6.44063 15.1969C6.14688 14.9031 6 14.55 6 14.1375V11.475C5.2625 10.9875 4.67188 10.3438 4.22813 9.54375C3.78438 8.74375 3.5625 7.875 3.5625 6.9375C3.5625 5.425 4.09063 4.14062 5.14688 3.08438C6.20312 2.02813 7.4875 1.5 9 1.5C10.5125 1.5 11.7969 2.02813 12.8531 3.08438C13.9094 4.14062 14.4375 5.425 14.4375 6.9375C14.4375 7.9 14.2156 8.775 13.7719 9.5625C13.3281 10.35 12.7375 10.9875 12 11.475V14.1375C12 14.55 11.8531 14.9031 11.5594 15.1969C11.2656 15.4906 10.9125 15.6375 10.5 15.6375C10.35 15.9 10.1438 16.1094 9.88125 16.2656C9.61875 16.4219 9.325 16.5 9 16.5ZM7.5 14.1375H10.5V13.4625H7.5V14.1375ZM7.5 12.7125H10.5V12H7.5V12.7125ZM9.5625 10.5V8.475L10.8188 7.21875C10.9313 7.10625 10.9875 6.975 10.9875 6.825C10.9875 6.675 10.9313 6.54375 10.8188 6.43125C10.7063 6.31875 10.575 6.2625 10.425 6.2625C10.275 6.2625 10.1438 6.31875 10.0313 6.43125L9 7.4625L7.96875 6.43125C7.85625 6.31875 7.725 6.2625 7.575 6.2625C7.425 6.2625 7.29375 6.31875 7.18125 6.43125C7.06875 6.54375 7.0125 6.675 7.0125 6.825C7.0125 6.975 7.06875 7.10625 7.18125 7.21875L8.4375 8.475V10.5H9.5625Z" fill="white"/>
</svg>
