<svg width="44" height="44" viewBox="0 0 44 44" fill="none" xmlns="http://www.w3.org/2000/svg">
<circle cx="22" cy="22" r="22" fill="url(#paint0_linear_25_607)"/>
<g filter="url(#filter0_i_25_607)">
<circle cx="22" cy="22" r="14" fill="url(#paint1_radial_25_607)"/>
<circle cx="22" cy="22" r="14" fill="url(#paint2_radial_25_607)" fill-opacity="0.29"/>
<circle cx="22" cy="22" r="14" fill="url(#paint3_linear_25_607)" fill-opacity="0.2" style="mix-blend-mode:multiply"/>
</g>
<circle cx="22" cy="22" r="15.3626" stroke="url(#paint4_linear_25_607)" stroke-width="2.72523"/>
<g style="mix-blend-mode:overlay" opacity="0.25">
<circle cx="22" cy="22" r="17.1363" stroke="white" stroke-width="0.272523"/>
</g>
<g clip-path="url(#clip0_25_607)">
<path opacity="0.4" d="M17.305 25C17.3875 24.6325 17.2375 24.1075 16.975 23.845L15.1525 22.0225C14.5825 21.4525 14.3575 20.845 14.5225 20.32C14.695 19.795 15.2275 19.435 16.0225 19.3L18.3625 18.91C18.7 18.85 19.1125 18.55 19.27 18.2425L20.56 15.655C20.935 14.9125 21.445 14.5 22 14.5C22.555 14.5 23.065 14.9125 23.44 15.655L24.73 18.2425C24.8275 18.4375 25.03 18.625 25.2475 18.7525L17.17 26.83C17.065 26.935 16.885 26.8375 16.915 26.6875L17.305 25Z" fill="white"/>
<path d="M27.0251 23.8449C26.7551 24.1149 26.6051 24.6324 26.6951 24.9999L27.2126 27.2574C27.4301 28.1949 27.2951 28.8999 26.8301 29.2374C26.6426 29.3724 26.4176 29.4399 26.1551 29.4399C25.7726 29.4399 25.3226 29.2974 24.8276 29.0049L22.6301 27.6999C22.2851 27.4974 21.7151 27.4974 21.3701 27.6999L19.1726 29.0049C18.3401 29.4924 17.6276 29.5749 17.1701 29.2374C16.9976 29.1099 16.8701 28.9374 16.7876 28.7124L25.9076 19.5924C26.2526 19.2474 26.7401 19.0899 27.2126 19.1724L27.9701 19.2999C28.7651 19.4349 29.2976 19.7949 29.4701 20.3199C29.6351 20.8449 29.4101 21.4524 28.8401 22.0224L27.0251 23.8449Z" fill="white"/>
</g>
<defs>
<filter id="filter0_i_25_607" x="5.2749" y="5.2749" width="33.4502" height="33.4502" filterUnits="userSpaceOnUse" color-interpolation-filters="sRGB">
<feFlood flood-opacity="0" result="BackgroundImageFix"/>
<feBlend mode="normal" in="SourceGraphic" in2="BackgroundImageFix" result="shape"/>
<feColorMatrix in="SourceAlpha" type="matrix" values="0 0 0 0 0 0 0 0 0 0 0 0 0 0 0 0 0 0 127 0" result="hardAlpha"/>
<feOffset/>
<feGaussianBlur stdDeviation="6.13176"/>
<feComposite in2="hardAlpha" operator="arithmetic" k2="-1" k3="1"/>
<feColorMatrix type="matrix" values="0 0 0 0 0.0428517 0 0 0 0 0.123627 0 0 0 0 0.130089 0 0 0 1 0"/>
<feBlend mode="normal" in2="shape" result="effect1_innerShadow_25_607"/>
</filter>
<linearGradient id="paint0_linear_25_607" x1="11.3112" y1="3.08888" x2="33.5112" y2="39.2667" gradientUnits="userSpaceOnUse">
<stop stop-color="#D0D0D0"/>
<stop offset="1" stop-color="#737373"/>
</linearGradient>
<radialGradient id="paint1_radial_25_607" cx="0" cy="0" r="1" gradientUnits="userSpaceOnUse" gradientTransform="translate(22 22) rotate(90) scale(21.8077)">
<stop stop-color="#7C7C7C"/>
<stop offset="1" stop-color="#4F4F4F"/>
</radialGradient>
<radialGradient id="paint2_radial_25_607" cx="0" cy="0" r="1" gradientUnits="userSpaceOnUse" gradientTransform="translate(15.8077 16.8846) rotate(-44.2462) scale(14.4697 7.68008)">
<stop stop-color="#707070"/>
<stop offset="1" stop-color="#707070" stop-opacity="0"/>
</radialGradient>
<linearGradient id="paint3_linear_25_607" x1="22" y1="8" x2="22" y2="36" gradientUnits="userSpaceOnUse">
<stop stop-opacity="0"/>
<stop offset="1" stop-opacity="0.8"/>
</linearGradient>
<linearGradient id="paint4_linear_25_607" x1="22" y1="8" x2="22" y2="36" gradientUnits="userSpaceOnUse">
<stop stop-color="#696969"/>
<stop offset="1" stop-color="#D5D5D5"/>
</linearGradient>
<clipPath id="clip0_25_607">
<rect width="18" height="18" fill="white" transform="translate(13 13)"/>
</clipPath>
</defs>
</svg>
