<svg width="16" height="16" viewBox="0 0 16 16" fill="none" xmlns="http://www.w3.org/2000/svg">
<path fill-rule="evenodd" clip-rule="evenodd" d="M8.43345 2.14276C7.67759 2.14276 6.95268 2.44303 6.4182 2.97751C5.88372 3.51199 5.58346 4.23689 5.58346 4.99276V7.20943H5.26679C4.93085 7.20943 4.60867 7.34288 4.37112 7.58043C4.13357 7.81797 4.00012 8.14015 4.00012 8.47609V12.2761C4.00012 12.612 4.13357 12.9342 4.37112 13.1718C4.60867 13.4093 4.93085 13.5428 5.26679 13.5428H11.6001C11.9361 13.5428 12.2582 13.4093 12.4958 13.1718C12.7333 12.9342 12.8668 12.612 12.8668 12.2761V8.47609C12.8668 8.14015 12.7333 7.81797 12.4958 7.58043C12.2582 7.34288 11.9361 7.20943 11.6001 7.20943H11.2835V4.99276C11.2835 4.23689 10.9832 3.51199 10.4487 2.97751C9.91423 2.44303 9.18932 2.14276 8.43345 2.14276ZM10.3335 7.20943V4.99276C10.3335 4.48885 10.1333 4.00558 9.77696 3.64926C9.42064 3.29294 8.93737 3.09276 8.43345 3.09276C7.92954 3.09276 7.44627 3.29294 7.08995 3.64926C6.73363 4.00558 6.53346 4.48885 6.53346 4.99276V7.20943H10.3335Z" fill="#8193AF"/>
</svg>
