<svg width="24" height="24" viewBox="0 0 24 24" fill="none" xmlns="http://www.w3.org/2000/svg">
<path d="M11.8 13L12.7 13.9C12.8833 14.0833 12.975 14.3167 12.975 14.6C12.975 14.8833 12.8833 15.1167 12.7 15.3C12.5167 15.4833 12.2833 15.575 12 15.575C11.7167 15.575 11.4833 15.4833 11.3 15.3L8.7 12.7C8.5 12.5 8.4 12.2667 8.4 12C8.4 11.7333 8.5 11.5 8.7 11.3L11.3 8.7C11.4833 8.51667 11.7167 8.425 12 8.425C12.2833 8.425 12.5167 8.51667 12.7 8.7C12.8833 8.88333 12.975 9.11667 12.975 9.4C12.975 9.68333 12.8833 9.91667 12.7 10.1L11.8 11H15C15.2833 11 15.5208 11.0958 15.7125 11.2875C15.9042 11.4792 16 11.7167 16 12C16 12.2833 15.9042 12.5208 15.7125 12.7125C15.5208 12.9042 15.2833 13 15 13H11.8ZM12 22C13.3833 22 14.6833 21.7375 15.9 21.2125C17.1167 20.6875 18.175 19.975 19.075 19.075C19.975 18.175 20.6875 17.1167 21.2125 15.9C21.7375 14.6833 22 13.3833 22 12C22 10.6167 21.7375 9.31667 21.2125 8.1C20.6875 6.88333 19.975 5.825 19.075 4.925C18.175 4.025 17.1167 3.3125 15.9 2.7875C14.6833 2.2625 13.3833 2 12 2C10.6167 2 9.31667 2.2625 8.1 2.7875C6.88333 3.3125 5.825 4.025 4.925 4.925C4.025 5.825 3.3125 6.88333 2.7875 8.1C2.2625 9.31667 2 10.6167 2 12C2 13.3833 2.2625 14.6833 2.7875 15.9C3.3125 17.1167 4.025 18.175 4.925 19.075C5.825 19.975 6.88333 20.6875 8.1 21.2125C9.31667 21.7375 10.6167 22 12 22ZM12 20C9.76667 20 7.875 19.225 6.325 17.675C4.775 16.125 4 14.2333 4 12C4 9.76667 4.775 7.875 6.325 6.325C7.875 4.775 9.76667 4 12 4C14.2333 4 16.125 4.775 17.675 6.325C19.225 7.875 20 9.76667 20 12C20 14.2333 19.225 16.125 17.675 17.675C16.125 19.225 14.2333 20 12 20Z" fill="white"/>
</svg>
