<svg width="18" height="18" viewBox="0 0 18 18" fill="none" xmlns="http://www.w3.org/2000/svg">
<path fill-rule="evenodd" clip-rule="evenodd" d="M9.00005 16.2C10.9096 16.2 12.741 15.4414 14.0912 14.0912C15.4415 12.7409 16.2 10.9095 16.2 8.99999C16.2 7.09043 15.4415 5.25908 14.0912 3.90882C12.741 2.55856 10.9096 1.79999 9.00005 1.79999C7.09049 1.79999 5.25914 2.55856 3.90888 3.90882C2.55862 5.25908 1.80005 7.09043 1.80005 8.99999C1.80005 10.9095 2.55862 12.7409 3.90888 14.0912C5.25914 15.4414 7.09049 16.2 9.00005 16.2ZM12.4713 7.37189C12.5235 7.30015 12.561 7.21884 12.5817 7.13262C12.6024 7.04639 12.6059 6.95693 12.592 6.86935C12.5781 6.78176 12.5471 6.69777 12.5008 6.62216C12.4545 6.54655 12.3937 6.48081 12.3219 6.42869C12.2502 6.37657 12.1689 6.33909 12.0827 6.31839C11.9965 6.29769 11.907 6.29417 11.8194 6.30804C11.7318 6.32192 11.6478 6.35291 11.5722 6.39924C11.4966 6.44557 11.4309 6.50635 11.3787 6.57809L8.24405 10.8891L6.55205 9.19709C6.48975 9.13265 6.41524 9.08126 6.33288 9.04592C6.25051 9.01059 6.16192 8.99201 6.0723 8.99127C5.98267 8.99054 5.8938 9.00766 5.81086 9.04164C5.72792 9.07561 5.65258 9.12577 5.58923 9.18918C5.52588 9.25259 5.4758 9.32797 5.4419 9.41094C5.408 9.49391 5.39096 9.58281 5.39178 9.67243C5.3926 9.76206 5.41126 9.85062 5.44668 9.93296C5.48209 10.0153 5.53355 10.0898 5.59805 10.152L7.84805 12.402C7.91701 12.471 8.00011 12.5242 8.09163 12.558C8.18315 12.5918 8.2809 12.6054 8.37816 12.5978C8.47542 12.5902 8.56987 12.5616 8.65501 12.5139C8.74016 12.4663 8.81396 12.4008 8.87135 12.3219L12.4713 7.37189Z" fill="white"/>
</svg>
