<svg width="18" height="18" viewBox="0 0 18 18" fill="none" xmlns="http://www.w3.org/2000/svg">
<path fill-rule="evenodd" clip-rule="evenodd" d="M9.00005 16.2C10.9096 16.2 12.741 15.4414 14.0912 14.0912C15.4415 12.7409 16.2 10.9095 16.2 8.99999C16.2 7.09043 15.4415 5.25908 14.0912 3.90882C12.741 2.55856 10.9096 1.79999 9.00005 1.79999C7.09049 1.79999 5.25914 2.55856 3.90888 3.90882C2.55862 5.25908 1.80005 7.09043 1.80005 8.99999C1.80005 10.9095 2.55862 12.7409 3.90888 14.0912C5.25914 15.4414 7.09049 16.2 9.00005 16.2ZM7.45205 6.49799C7.32409 6.37876 7.15485 6.31384 6.97998 6.31693C6.80511 6.32002 6.63826 6.39086 6.51459 6.51453C6.39092 6.6382 6.32008 6.80505 6.31699 6.97992C6.31391 7.15479 6.37882 7.32403 6.49805 7.45199L8.04605 8.99999L6.49805 10.548C6.43173 10.6098 6.37854 10.6843 6.34165 10.7671C6.30475 10.8499 6.28492 10.9393 6.28332 11.0299C6.28172 11.1206 6.29839 11.2106 6.33234 11.2946C6.36629 11.3787 6.41682 11.455 6.48091 11.5191C6.54501 11.5832 6.62136 11.6337 6.70541 11.6677C6.78946 11.7016 6.87949 11.7183 6.97012 11.7167C7.06075 11.7151 7.15013 11.6953 7.23293 11.6584C7.31573 11.6215 7.39025 11.5683 7.45205 11.502L9.00005 9.95399L10.548 11.502C10.6098 11.5683 10.6844 11.6215 10.7672 11.6584C10.85 11.6953 10.9393 11.7151 11.03 11.7167C11.1206 11.7183 11.2106 11.7016 11.2947 11.6677C11.3787 11.6337 11.4551 11.5832 11.5192 11.5191C11.5833 11.455 11.6338 11.3787 11.6678 11.2946C11.7017 11.2106 11.7184 11.1206 11.7168 11.0299C11.7152 10.9393 11.6953 10.8499 11.6585 10.7671C11.6216 10.6843 11.5684 10.6098 11.502 10.548L9.95405 8.99999L11.502 7.45199C11.6213 7.32403 11.6862 7.15479 11.6831 6.97992C11.68 6.80505 11.6092 6.6382 11.4855 6.51453C11.3618 6.39086 11.195 6.32002 11.0201 6.31693C10.8452 6.31384 10.676 6.37876 10.548 6.49799L9.00005 8.04599L7.45205 6.49799Z" fill="#D77C7D"/>
</svg>
