<svg width="16" height="16" viewBox="0 0 16 16" fill="none" xmlns="http://www.w3.org/2000/svg">
<path d="M7.98001 1.33333C4.29999 1.33333 1.31332 4.31999 1.31332 7.99999C1.31332 11.68 4.29999 14.6667 7.98001 14.6667C11.66 14.6667 14.6467 11.68 14.6467 7.99999C14.6467 4.31999 11.6667 1.33333 7.98001 1.33333ZM9.98001 9.48666L8.04668 10.6C7.80668 10.74 7.54001 10.8067 7.28001 10.8067C7.01334 10.8067 6.75334 10.74 6.51332 10.6C6.03332 10.32 5.74666 9.82666 5.74666 9.26666V7.03333C5.74666 6.47999 6.03332 5.97999 6.51332 5.69999C6.99334 5.41999 7.56668 5.41999 8.05334 5.69999L9.98668 6.81333C10.4667 7.09333 10.7533 7.58666 10.7533 8.14666C10.7533 8.70666 10.4667 9.20666 9.98001 9.48666Z" fill="white"/>
</svg>
