<svg width="12" height="12" viewBox="0 0 12 12" fill="none" xmlns="http://www.w3.org/2000/svg">
<path fill-rule="evenodd" clip-rule="evenodd" d="M5.6 11.2C7.08521 11.2 8.50959 10.61 9.5598 9.5598C10.61 8.50959 11.2 7.08521 11.2 5.6C11.2 4.11479 10.61 2.69041 9.5598 1.6402C8.50959 0.589998 7.08521 0 5.6 0C4.11479 0 2.69041 0.589998 1.6402 1.6402C0.589998 2.69041 0 4.11479 0 5.6C0 7.08521 0.589998 8.50959 1.6402 9.5598C2.69041 10.61 4.11479 11.2 5.6 11.2ZM4.396 3.654C4.29648 3.56126 4.16484 3.51078 4.02883 3.51318C3.89282 3.51558 3.76305 3.57068 3.66686 3.66686C3.57068 3.76305 3.51558 3.89282 3.51318 4.02883C3.51078 4.16484 3.56126 4.29648 3.654 4.396L4.858 5.6L3.654 6.804C3.60242 6.85206 3.56105 6.91002 3.53235 6.97442C3.50366 7.03882 3.48823 7.10834 3.48699 7.17883C3.48574 7.24933 3.49871 7.31935 3.52511 7.38472C3.55152 7.45009 3.59082 7.50947 3.64067 7.55933C3.69053 7.60918 3.74991 7.64848 3.81528 7.67489C3.88065 7.70129 3.95067 7.71426 4.02117 7.71301C4.09166 7.71177 4.16118 7.69634 4.22558 7.66765C4.28998 7.63895 4.34794 7.59758 4.396 7.546L5.6 6.342L6.804 7.546C6.85206 7.59758 6.91002 7.63895 6.97442 7.66765C7.03882 7.69634 7.10834 7.71177 7.17883 7.71301C7.24933 7.71426 7.31935 7.70129 7.38472 7.67489C7.45009 7.64848 7.50947 7.60918 7.55933 7.55933C7.60918 7.50947 7.64848 7.45009 7.67489 7.38472C7.70129 7.31935 7.71426 7.24933 7.71301 7.17883C7.71177 7.10834 7.69634 7.03882 7.66765 6.97442C7.63895 6.91002 7.59758 6.85206 7.546 6.804L6.342 5.6L7.546 4.396C7.63873 4.29648 7.68922 4.16484 7.68682 4.02883C7.68442 3.89282 7.62932 3.76305 7.53313 3.66686C7.43694 3.57068 7.30718 3.51558 7.17116 3.51318C7.03515 3.51078 6.90352 3.56126 6.804 3.654L5.6 4.858L4.396 3.654Z" fill="white"/>
</svg>
