<svg width="12" height="12" viewBox="0 0 12 12" fill="none" xmlns="http://www.w3.org/2000/svg">
<path fill-rule="evenodd" clip-rule="evenodd" d="M5.6 11.2C7.08521 11.2 8.50959 10.61 9.5598 9.5598C10.61 8.50959 11.2 7.08521 11.2 5.6C11.2 4.11479 10.61 2.69041 9.5598 1.6402C8.50959 0.589998 7.08521 0 5.6 0C4.11479 0 2.69041 0.589998 1.6402 1.6402C0.589998 2.69041 0 4.11479 0 5.6C0 7.08521 0.589998 8.50959 1.6402 9.5598C2.69041 10.61 4.11479 11.2 5.6 11.2ZM8.2999 4.3337C8.34044 4.2779 8.36959 4.21466 8.38569 4.1476C8.40179 4.08053 8.40452 4.01095 8.39373 3.94283C8.38294 3.87471 8.35884 3.80938 8.3228 3.75058C8.28677 3.69177 8.2395 3.64064 8.1837 3.6001C8.1279 3.55956 8.06466 3.53041 7.9976 3.51431C7.93053 3.49821 7.86095 3.49548 7.79283 3.50627C7.72471 3.51706 7.65938 3.54116 7.60058 3.5772C7.54177 3.61323 7.49064 3.6605 7.4501 3.7163L5.012 7.0693L3.696 5.7533C3.64755 5.70318 3.5896 5.66321 3.52553 5.63573C3.46147 5.60824 3.39257 5.59379 3.32286 5.59322C3.25315 5.59265 3.18403 5.60596 3.11952 5.63239C3.05501 5.65882 2.99641 5.69783 2.94714 5.74715C2.89787 5.79646 2.85892 5.8551 2.83255 5.91963C2.80618 5.98416 2.79293 6.0533 2.79357 6.12301C2.79421 6.19272 2.80872 6.2616 2.83627 6.32564C2.86381 6.38968 2.90383 6.44759 2.954 6.496L4.704 8.246C4.75764 8.29967 4.82227 8.34107 4.89345 8.36736C4.96463 8.39365 5.04066 8.4042 5.11631 8.39827C5.19195 8.39235 5.26542 8.3701 5.33164 8.33306C5.39786 8.29602 5.45527 8.24506 5.4999 8.1837L8.2999 4.3337Z" fill="white"/>
</svg>
