<svg width="18" height="18" viewBox="0 0 18 18" fill="none" xmlns="http://www.w3.org/2000/svg">
<path d="M7.36875 15.525C6.08125 15.1625 5.03125 14.4531 4.21875 13.3969C3.40625 12.3406 3 11.125 3 9.75001C3 9.03751 3.11875 8.35938 3.35625 7.71563C3.59375 7.07188 3.93125 6.48126 4.36875 5.94376C4.50625 5.79376 4.675 5.71563 4.875 5.70938C5.075 5.70313 5.25625 5.78126 5.41875 5.94376C5.55625 6.08126 5.62813 6.25001 5.63438 6.45001C5.64062 6.65001 5.575 6.83751 5.4375 7.01251C5.1375 7.40001 4.90625 7.82501 4.74375 8.28751C4.58125 8.75001 4.5 9.23751 4.5 9.75001C4.5 10.7625 4.79688 11.6656 5.39062 12.4594C5.98438 13.2531 6.75 13.7938 7.6875 14.0813C7.85 14.1313 7.98438 14.225 8.09063 14.3625C8.19688 14.5 8.25 14.65 8.25 14.8125C8.25 15.0625 8.1625 15.2594 7.9875 15.4031C7.8125 15.5469 7.60625 15.5875 7.36875 15.525ZM10.6313 15.525C10.3938 15.5875 10.1875 15.5438 10.0125 15.3938C9.8375 15.2438 9.75 15.0438 9.75 14.7938C9.75 14.6438 9.80313 14.5 9.90938 14.3625C10.0156 14.225 10.15 14.1313 10.3125 14.0813C11.25 13.7813 12.0156 13.2375 12.6094 12.45C13.2031 11.6625 13.5 10.7625 13.5 9.75001C13.5 8.50001 13.0625 7.43751 12.1875 6.56251C11.3125 5.68751 10.25 5.25001 9 5.25001H8.94375L9.24375 5.55001C9.38125 5.68751 9.45 5.86251 9.45 6.07501C9.45 6.28751 9.38125 6.46251 9.24375 6.60001C9.10625 6.73751 8.93125 6.80626 8.71875 6.80626C8.50625 6.80626 8.33125 6.73751 8.19375 6.60001L6.61875 5.02501C6.54375 4.95001 6.49063 4.86876 6.45938 4.78126C6.42813 4.69376 6.4125 4.60001 6.4125 4.50001C6.4125 4.40001 6.42813 4.30626 6.45938 4.21876C6.49063 4.13126 6.54375 4.05001 6.61875 3.97501L8.19375 2.40001C8.33125 2.26251 8.50625 2.19376 8.71875 2.19376C8.93125 2.19376 9.10625 2.26251 9.24375 2.40001C9.38125 2.53751 9.45 2.71251 9.45 2.92501C9.45 3.13751 9.38125 3.31251 9.24375 3.45001L8.94375 3.75001H9C10.675 3.75001 12.0938 4.33126 13.2563 5.49376C14.4188 6.65626 15 8.07501 15 9.75001C15 11.1125 14.5938 12.325 13.7812 13.3875C12.9688 14.45 11.9188 15.1625 10.6313 15.525Z" fill="white"/>
</svg>
