<svg width="16" height="16" viewBox="0 0 16 16" fill="none" xmlns="http://www.w3.org/2000/svg">
<g opacity="0.5">
<path fill-rule="evenodd" clip-rule="evenodd" d="M6.57598 11.824C6.46362 11.7115 6.4005 11.559 6.4005 11.4C6.4005 11.241 6.46362 11.0885 6.57598 10.976L9.55198 8.00001L6.57598 5.02401C6.51703 4.96908 6.46974 4.90284 6.43695 4.82924C6.40416 4.75564 6.38652 4.67619 6.3851 4.59563C6.38368 4.51506 6.3985 4.43504 6.42868 4.36033C6.45885 4.28562 6.50377 4.21775 6.56075 4.16078C6.61772 4.1038 6.68559 4.05889 6.7603 4.02871C6.83501 3.99853 6.91503 3.98371 6.99559 3.98514C7.07616 3.98656 7.15561 4.00419 7.22921 4.03698C7.30281 4.06978 7.36905 4.11706 7.42398 4.17601L10.824 7.57601C10.9363 7.68851 10.9994 7.84101 10.9994 8.00001C10.9994 8.15901 10.9363 8.31151 10.824 8.42401L7.42398 11.824C7.31148 11.9364 7.15898 11.9995 6.99998 11.9995C6.84098 11.9995 6.68848 11.9364 6.57598 11.824Z" fill="white"/>
</g>
</svg>
