<svg width="16" height="16" viewBox="0 0 16 16" fill="none" xmlns="http://www.w3.org/2000/svg">
<path d="M10.7667 8.66665H3.33341C3.14453 8.66665 2.98619 8.60277 2.85841 8.47499C2.73064 8.34721 2.66675 8.18888 2.66675 7.99999C2.66675 7.8111 2.73064 7.65277 2.85841 7.52499C2.98619 7.39721 3.14453 7.33332 3.33341 7.33332H10.7667L8.86675 5.43332C8.73341 5.29999 8.66953 5.14443 8.67508 4.96665C8.68064 4.78888 8.74453 4.63332 8.86675 4.49999C9.00008 4.36665 9.15841 4.29721 9.34175 4.29165C9.52508 4.2861 9.68341 4.34999 9.81675 4.48332L12.8667 7.53332C12.9334 7.59999 12.9806 7.67221 13.0084 7.74999C13.0362 7.82777 13.0501 7.9111 13.0501 7.99999C13.0501 8.08888 13.0362 8.17221 13.0084 8.24999C12.9806 8.32777 12.9334 8.39999 12.8667 8.46665L9.81675 11.5167C9.68341 11.65 9.52508 11.7139 9.34175 11.7083C9.15841 11.7028 9.00008 11.6333 8.86675 11.5C8.74453 11.3667 8.68064 11.2111 8.67508 11.0333C8.66953 10.8555 8.73341 10.7 8.86675 10.5667L10.7667 8.66665Z" fill="white"/>
</svg>
