<svg width="14" height="14" viewBox="0 0 14 14" fill="none" xmlns="http://www.w3.org/2000/svg">
<g clip-path="url(#clip0_378_726)">
<path d="M6.97992 0.333282C3.2999 0.333282 0.313232 3.31995 0.313232 6.99995C0.313232 10.6799 3.2999 13.6666 6.97992 13.6666C10.6599 13.6666 13.6466 10.6799 13.6466 6.99995C13.6466 3.31995 10.6666 0.333282 6.97992 0.333282ZM8.97992 8.48661L7.04659 9.59995C6.80659 9.73995 6.53992 9.80661 6.27992 9.80661C6.01325 9.80661 5.75325 9.73995 5.51323 9.59995C5.03323 9.31995 4.74657 8.82661 4.74657 8.26661V6.03328C4.74657 5.47995 5.03323 4.97995 5.51323 4.69995C5.99325 4.41995 6.56659 4.41995 7.05325 4.69995L8.98659 5.81328C9.46659 6.09328 9.75325 6.58662 9.75325 7.14662C9.75325 7.70661 9.46659 8.20661 8.97992 8.48661Z" fill="white"/>
</g>
<defs>
<clipPath id="clip0_378_726">
<rect width="14" height="14" fill="white"/>
</clipPath>
</defs>
</svg>
