<svg width="18" height="18" viewBox="0 0 18 18" fill="none" xmlns="http://www.w3.org/2000/svg">
<path d="M1.875 12.0938V5.90625C1.875 5.68125 1.95 5.5 2.1 5.3625C2.25 5.225 2.425 5.15625 2.625 5.15625C2.6875 5.15625 2.75625 5.1625 2.83125 5.175C2.90625 5.1875 2.975 5.21875 3.0375 5.26875L7.6875 8.38125C7.8 8.45625 7.88438 8.54688 7.94063 8.65313C7.99688 8.75938 8.025 8.875 8.025 9C8.025 9.125 7.99688 9.24063 7.94063 9.34688C7.88438 9.45312 7.8 9.54375 7.6875 9.61875L3.0375 12.7313C2.975 12.7813 2.90625 12.8125 2.83125 12.825C2.75625 12.8375 2.6875 12.8438 2.625 12.8438C2.425 12.8438 2.25 12.775 2.1 12.6375C1.95 12.5 1.875 12.3188 1.875 12.0938ZM9.375 12.0938V5.90625C9.375 5.68125 9.45 5.5 9.6 5.3625C9.75 5.225 9.925 5.15625 10.125 5.15625C10.1875 5.15625 10.2563 5.1625 10.3313 5.175C10.4062 5.1875 10.475 5.21875 10.5375 5.26875L15.1875 8.38125C15.3 8.45625 15.3844 8.54688 15.4406 8.65313C15.4969 8.75938 15.525 8.875 15.525 9C15.525 9.125 15.4969 9.24063 15.4406 9.34688C15.3844 9.45312 15.3 9.54375 15.1875 9.61875L10.5375 12.7313C10.475 12.7813 10.4062 12.8125 10.3313 12.825C10.2563 12.8375 10.1875 12.8438 10.125 12.8438C9.925 12.8438 9.75 12.775 9.6 12.6375C9.45 12.5 9.375 12.3188 9.375 12.0938Z" fill="white"/>
</svg>
