<svg width="50" height="50" viewBox="0 0 50 50" fill="none" xmlns="http://www.w3.org/2000/svg">
<g clip-path="url(#clip0_136_1863)">
<path d="M23.5376 48.0088L23.8881 26.5648V5.92672C23.8881 3.86994 26.3834 2.81109 27.832 4.26818L45.7105 22.2451C47.1591 23.7022 46.1591 26.2135 44.061 26.2135H28.332C26.5844 26.2135 25.6872 28.3733 26.9348 29.6289L46.6077 49.4143C47.8554 50.67 50.0049 49.7657 50.0049 48.0088V3.31241C50.0049 1.4524 48.5049 0 46.7105 0H2.2152C0.117068 0 -0.780128 2.15986 0.818003 3.41548L19.5937 22.2967C21.0423 23.7537 20.0423 26.265 17.9442 26.265H2.2152C0.117068 26.265 -0.780128 28.4248 0.818003 29.6805L20.4909 49.4143C21.3881 50.67 23.5376 49.7657 23.5376 48.0088Z" fill="white"/>
</g>
<defs>
<clipPath id="clip0_136_1863">
<rect width="50" height="49.8692" fill="white"/>
</clipPath>
</defs>
</svg>
