<svg width="25" height="25" viewBox="0 0 25 25" fill="none" xmlns="http://www.w3.org/2000/svg">
<rect width="25" height="25" rx="6" fill="#E5E5E5" fill-opacity="0.2"/>
<path fill-rule="evenodd" clip-rule="evenodd" d="M5.29199 8.69201C5.29304 8.45563 5.34064 8.22177 5.43207 8.00379C5.52349 7.7858 5.65696 7.58796 5.82485 7.42156C5.99274 7.25515 6.19176 7.12345 6.41055 7.03396C6.62934 6.94448 6.86361 6.89896 7.09999 6.90001H17.9C18.1364 6.90001 18.3704 6.94657 18.5888 7.03703C18.8072 7.12749 19.0056 7.26007 19.1728 7.42722C19.3399 7.59437 19.4725 7.7928 19.563 8.01118C19.6534 8.22957 19.7 8.46363 19.7 8.70001L19.708 16.3C19.708 16.5364 19.6614 16.7705 19.571 16.9888C19.4805 17.2072 19.3479 17.4057 19.1808 17.5728C19.0136 17.7399 18.8152 17.8725 18.5968 17.963C18.3784 18.0535 18.1444 18.1 17.908 18.1H7.10799C6.62894 18.0985 6.16992 17.9076 5.83117 17.5688C5.49243 17.2301 5.30147 16.7711 5.29999 16.292L5.29199 8.69201ZM11.9 16.308V15.808C11.9 15.6489 11.8368 15.4963 11.7243 15.3837C11.6117 15.2712 11.4591 15.208 11.3 15.208H7.09999C6.94086 15.208 6.78825 15.2712 6.67573 15.3837C6.56321 15.4963 6.49999 15.6489 6.49999 15.808V16.3C6.49999 16.6312 6.76879 16.9 7.09999 16.9H11.3984C11.5386 16.8767 11.6659 16.8044 11.7578 16.696C11.8496 16.5876 11.9 16.4501 11.9 16.308ZM13.1 16.308C13.1 16.4501 13.1504 16.5876 13.2422 16.696C13.3341 16.8044 13.4614 16.8767 13.6016 16.9H17.9C18.0591 16.9 18.2117 16.8368 18.3243 16.7243C18.4368 16.6118 18.5 16.4591 18.5 16.3V15.808C18.5 15.6489 18.4368 15.4963 18.3243 15.3837C18.2117 15.2712 18.0591 15.208 17.9 15.208H13.7C13.5409 15.208 13.3883 15.2712 13.2757 15.3837C13.1632 15.4963 13.1 15.6489 13.1 15.808V16.308ZM18.5 13.404V12.904C18.5 12.7449 18.4368 12.5923 18.3243 12.4797C18.2117 12.3672 18.0591 12.304 17.9 12.304H13.7C13.5409 12.304 13.3883 12.3672 13.2757 12.4797C13.1632 12.5923 13.1 12.7449 13.1 12.904V13.404C13.1 13.7352 13.3688 14.004 13.7 14.004H17.9C18.0591 14.004 18.2117 13.9408 18.3243 13.8283C18.4368 13.7158 18.5 13.5631 18.5 13.404ZM11.9 13.404V12.904C11.9 12.7449 11.8368 12.5923 11.7243 12.4797C11.6117 12.3672 11.4591 12.304 11.3 12.304H7.09999C6.94086 12.304 6.78825 12.3672 6.67573 12.4797C6.56321 12.5923 6.49999 12.7449 6.49999 12.904V13.404C6.49999 13.7352 6.76879 14.004 7.09999 14.004H11.3C11.4591 14.004 11.6117 13.9408 11.7243 13.8283C11.8368 13.7158 11.9 13.5631 11.9 13.404ZM18.5 10.5V10C18.5 9.84088 18.4368 9.68827 18.3243 9.57575C18.2117 9.46323 18.0591 9.40001 17.9 9.40001H13.7C13.5409 9.40001 13.3883 9.46323 13.2757 9.57575C13.1632 9.68827 13.1 9.84088 13.1 10V10.5C13.1 10.8312 13.3688 11.1 13.7 11.1H17.9C18.0591 11.1 18.2117 11.0368 18.3243 10.9243C18.4368 10.8118 18.5 10.6591 18.5 10.5ZM11.9 10.5V10C11.9 9.84088 11.8368 9.68827 11.7243 9.57575C11.6117 9.46323 11.4591 9.40001 11.3 9.40001H7.09999C6.94086 9.40001 6.78825 9.46323 6.67573 9.57575C6.56321 9.68827 6.49999 9.84088 6.49999 10V10.5C6.49999 10.8312 6.76879 11.1 7.09999 11.1H11.3C11.4591 11.1 11.6117 11.0368 11.7243 10.9243C11.8368 10.8118 11.9 10.6591 11.9 10.5Z" fill="white"/>
</svg>
