<svg width="18" height="18" viewBox="0 0 18 18" fill="none" xmlns="http://www.w3.org/2000/svg">
<path fill-rule="evenodd" clip-rule="evenodd" d="M8.99995 0.900024C12.4794 0.900024 15.3 2.51102 15.3 4.50002C15.3 6.48902 12.4794 8.10002 8.99995 8.10002C5.52055 8.10002 2.69995 6.48902 2.69995 4.50002C2.69995 2.51102 5.52055 0.900024 8.99995 0.900024ZM14.1246 8.21702C14.5422 7.97942 14.9436 7.69233 15.3 7.36023V9.00002C15.3 10.989 12.4794 12.6 8.99995 12.6C5.52055 12.6 2.69995 10.989 2.69995 9.00002V7.36023C3.05635 7.69322 3.45775 7.97942 3.87535 8.21792C5.25415 9.00542 7.06855 9.45002 8.99995 9.45002C10.9314 9.45002 12.7458 9.00542 14.1246 8.21702ZM2.69995 11.8611V13.5C2.69995 15.489 5.52055 17.1 8.99995 17.1C12.4794 17.1 15.3 15.489 15.3 13.5V11.8602C14.9436 12.1932 14.5422 12.4794 14.1246 12.7179C12.7458 13.5054 10.9314 13.95 8.99995 13.95C7.06855 13.95 5.25415 13.5054 3.87535 12.717C3.45187 12.478 3.05745 12.1908 2.69995 11.8611Z" fill="white"/>
</svg>
