<svg width="335" height="14" viewBox="0 0 335 14" fill="none" xmlns="http://www.w3.org/2000/svg">
<line opacity="0.07" y1="-0.5" x2="116" y2="-0.5" transform="matrix(-1 -8.74228e-08 -8.74228e-08 1 116 7)" stroke="url(#paint0_linear_30_1327)"/>
<path d="M127.006 9.08398L128.705 2.46875H129.596L129.496 4.17383L127.68 11H126.754L127.006 9.08398ZM125.734 2.46875L127.111 9.03125L127.234 11H126.25L124.275 2.46875H125.734ZM131.523 9.01367L132.883 2.46875H134.348L132.373 11H131.389L131.523 9.01367ZM129.941 2.46875L131.623 9.10156L131.869 11H130.943L129.156 4.17383L129.062 2.46875H129.941ZM136.571 2V11H135.165V2H136.571ZM136.325 7.5957L135.868 7.58984C135.872 7.15234 135.933 6.74805 136.05 6.37695C136.171 6.00586 136.339 5.68359 136.554 5.41016C136.773 5.13281 137.034 4.91992 137.339 4.77148C137.644 4.61914 137.982 4.54297 138.353 4.54297C138.665 4.54297 138.946 4.58594 139.196 4.67188C139.45 4.75781 139.669 4.89648 139.853 5.08789C140.036 5.27539 140.175 5.52148 140.269 5.82617C140.366 6.12695 140.415 6.49414 140.415 6.92773V11H138.997V6.91602C138.997 6.61133 138.952 6.36914 138.862 6.18945C138.776 6.00977 138.65 5.88086 138.482 5.80273C138.314 5.7207 138.109 5.67969 137.866 5.67969C137.612 5.67969 137.388 5.73047 137.193 5.83203C137.001 5.93359 136.841 6.07227 136.712 6.24805C136.583 6.42383 136.485 6.62695 136.419 6.85742C136.357 7.08789 136.325 7.33398 136.325 7.5957ZM145.299 9.72852V6.70508C145.299 6.47852 145.258 6.2832 145.176 6.11914C145.094 5.95508 144.969 5.82812 144.801 5.73828C144.637 5.64844 144.43 5.60352 144.18 5.60352C143.949 5.60352 143.75 5.64258 143.582 5.7207C143.414 5.79883 143.283 5.9043 143.19 6.03711C143.096 6.16992 143.049 6.32031 143.049 6.48828H141.643C141.643 6.23828 141.703 5.99609 141.824 5.76172C141.946 5.52734 142.121 5.31836 142.352 5.13477C142.582 4.95117 142.858 4.80664 143.178 4.70117C143.498 4.5957 143.858 4.54297 144.256 4.54297C144.733 4.54297 145.155 4.62305 145.522 4.7832C145.893 4.94336 146.184 5.18555 146.395 5.50977C146.61 5.83008 146.717 6.23242 146.717 6.7168V9.53516C146.717 9.82422 146.737 10.084 146.776 10.3145C146.819 10.541 146.879 10.7383 146.957 10.9062V11H145.51C145.444 10.8477 145.391 10.6543 145.352 10.4199C145.317 10.1816 145.299 9.95117 145.299 9.72852ZM145.504 7.14453L145.516 8.01758H144.502C144.24 8.01758 144.01 8.04297 143.811 8.09375C143.612 8.14062 143.446 8.21094 143.313 8.30469C143.18 8.39844 143.08 8.51172 143.014 8.64453C142.948 8.77734 142.914 8.92773 142.914 9.0957C142.914 9.26367 142.953 9.41797 143.031 9.55859C143.11 9.69531 143.223 9.80273 143.371 9.88086C143.524 9.95898 143.707 9.99805 143.922 9.99805C144.211 9.99805 144.463 9.93945 144.678 9.82227C144.897 9.70117 145.069 9.55469 145.194 9.38281C145.319 9.20703 145.385 9.04102 145.393 8.88477L145.85 9.51172C145.803 9.67188 145.723 9.84375 145.61 10.0273C145.496 10.2109 145.348 10.3867 145.164 10.5547C144.985 10.7188 144.768 10.8535 144.514 10.959C144.264 11.0645 143.975 11.1172 143.647 11.1172C143.233 11.1172 142.864 11.0352 142.539 10.8711C142.215 10.7031 141.961 10.4785 141.778 10.1973C141.594 9.91211 141.502 9.58984 141.502 9.23047C141.502 8.89453 141.565 8.59766 141.69 8.33984C141.819 8.07812 142.006 7.85938 142.252 7.68359C142.502 7.50781 142.807 7.375 143.166 7.28516C143.526 7.19141 143.936 7.14453 144.397 7.14453H145.504ZM150.98 4.66016V5.69141H147.406V4.66016H150.98ZM148.437 3.10742H149.849V9.24805C149.849 9.44336 149.876 9.59375 149.931 9.69922C149.99 9.80078 150.07 9.86914 150.171 9.9043C150.273 9.93945 150.392 9.95703 150.529 9.95703C150.626 9.95703 150.72 9.95117 150.81 9.93945C150.9 9.92773 150.972 9.91602 151.027 9.9043L151.033 10.9824C150.915 11.0176 150.779 11.0488 150.622 11.0762C150.47 11.1035 150.294 11.1172 150.095 11.1172C149.771 11.1172 149.484 11.0605 149.234 10.9473C148.984 10.8301 148.788 10.6406 148.648 10.3789C148.507 10.1172 148.437 9.76953 148.437 9.33594V3.10742ZM156.658 10.3086L158.38 4.66016H159.892L157.349 11.9668C157.291 12.123 157.214 12.293 157.121 12.4766C157.027 12.6602 156.904 12.834 156.752 12.998C156.603 13.166 156.418 13.3008 156.195 13.4023C155.972 13.5078 155.703 13.5605 155.386 13.5605C155.261 13.5605 155.14 13.5488 155.023 13.5254C154.91 13.5059 154.802 13.4844 154.701 13.4609L154.695 12.3828C154.734 12.3867 154.781 12.3906 154.836 12.3945C154.894 12.3984 154.941 12.4004 154.976 12.4004C155.211 12.4004 155.406 12.3711 155.562 12.3125C155.718 12.2578 155.845 12.168 155.943 12.043C156.045 11.918 156.13 11.75 156.201 11.5391L156.658 10.3086ZM155.685 4.66016L157.191 9.40625L157.443 10.8945L156.464 11.1465L154.162 4.66016H155.685ZM160.217 7.90039V7.76562C160.217 7.30859 160.284 6.88477 160.417 6.49414C160.55 6.09961 160.741 5.75781 160.991 5.46875C161.245 5.17578 161.553 4.94922 161.917 4.78906C162.284 4.625 162.698 4.54297 163.159 4.54297C163.624 4.54297 164.038 4.625 164.401 4.78906C164.768 4.94922 165.079 5.17578 165.333 5.46875C165.587 5.75781 165.78 6.09961 165.913 6.49414C166.046 6.88477 166.112 7.30859 166.112 7.76562V7.90039C166.112 8.35742 166.046 8.78125 165.913 9.17188C165.78 9.5625 165.587 9.9043 165.333 10.1973C165.079 10.4863 164.77 10.7129 164.407 10.877C164.044 11.0371 163.632 11.1172 163.171 11.1172C162.706 11.1172 162.29 11.0371 161.923 10.877C161.559 10.7129 161.251 10.4863 160.997 10.1973C160.743 9.9043 160.55 9.5625 160.417 9.17188C160.284 8.78125 160.217 8.35742 160.217 7.90039ZM161.63 7.76562V7.90039C161.63 8.18555 161.659 8.45508 161.717 8.70898C161.776 8.96289 161.868 9.18555 161.993 9.37695C162.118 9.56836 162.278 9.71875 162.473 9.82812C162.669 9.9375 162.901 9.99219 163.171 9.99219C163.432 9.99219 163.659 9.9375 163.85 9.82812C164.046 9.71875 164.206 9.56836 164.331 9.37695C164.456 9.18555 164.548 8.96289 164.606 8.70898C164.669 8.45508 164.7 8.18555 164.7 7.90039V7.76562C164.7 7.48438 164.669 7.21875 164.606 6.96875C164.548 6.71484 164.454 6.49023 164.325 6.29492C164.2 6.09961 164.04 5.94727 163.844 5.83789C163.653 5.72461 163.425 5.66797 163.159 5.66797C162.893 5.66797 162.663 5.72461 162.467 5.83789C162.276 5.94727 162.118 6.09961 161.993 6.29492C161.868 6.49023 161.776 6.71484 161.717 6.96875C161.659 7.21875 161.63 7.48438 161.63 7.76562ZM170.99 9.50586V4.66016H172.408V11H171.072L170.99 9.50586ZM171.189 8.1875L171.664 8.17578C171.664 8.60156 171.617 8.99414 171.523 9.35352C171.43 9.70898 171.285 10.0195 171.09 10.2852C170.894 10.5469 170.644 10.752 170.34 10.9004C170.035 11.0449 169.67 11.1172 169.244 11.1172C168.935 11.1172 168.652 11.0723 168.394 10.9824C168.137 10.8926 167.914 10.7539 167.726 10.5664C167.543 10.3789 167.4 10.1348 167.299 9.83398C167.197 9.5332 167.146 9.17383 167.146 8.75586V4.66016H168.558V8.76758C168.558 8.99805 168.586 9.19141 168.64 9.34766C168.695 9.5 168.769 9.62305 168.863 9.7168C168.957 9.81055 169.066 9.87695 169.191 9.91602C169.316 9.95508 169.449 9.97461 169.59 9.97461C169.992 9.97461 170.308 9.89648 170.539 9.74023C170.773 9.58008 170.939 9.36523 171.037 9.0957C171.139 8.82617 171.189 8.52344 171.189 8.1875ZM175.077 2V2.82617C175.077 3.07227 175.032 3.32813 174.942 3.59375C174.856 3.85547 174.735 4.10742 174.579 4.34961C174.423 4.58789 174.243 4.79492 174.04 4.9707L173.331 4.52539C173.491 4.2832 173.62 4.02734 173.718 3.75781C173.819 3.48437 173.87 3.17773 173.87 2.83789V2H175.077ZM177.834 2V11H176.416V2H177.834ZM180.773 2V11H179.355V2H180.773ZM186.58 2V11H185.162V2H186.58ZM190.801 11.1172C190.333 11.1172 189.909 11.041 189.53 10.8887C189.155 10.7324 188.835 10.5156 188.569 10.2383C188.307 9.96094 188.106 9.63477 187.965 9.25977C187.825 8.88477 187.754 8.48047 187.754 8.04688V7.8125C187.754 7.31641 187.827 6.86719 187.971 6.46484C188.116 6.0625 188.317 5.71875 188.575 5.43359C188.833 5.14453 189.137 4.92383 189.489 4.77148C189.84 4.61914 190.221 4.54297 190.631 4.54297C191.085 4.54297 191.481 4.61914 191.821 4.77148C192.161 4.92383 192.442 5.13867 192.665 5.41602C192.891 5.68945 193.059 6.01562 193.169 6.39453C193.282 6.77344 193.338 7.19141 193.338 7.64844V8.25195H188.44V7.23828H191.944V7.12695C191.936 6.87305 191.885 6.63477 191.792 6.41211C191.702 6.18945 191.563 6.00977 191.376 5.87305C191.188 5.73633 190.938 5.66797 190.626 5.66797C190.391 5.66797 190.182 5.71875 189.999 5.82031C189.819 5.91797 189.669 6.06055 189.547 6.24805C189.426 6.43555 189.333 6.66211 189.266 6.92773C189.204 7.18945 189.172 7.48438 189.172 7.8125V8.04688C189.172 8.32422 189.21 8.58203 189.284 8.82031C189.362 9.05469 189.475 9.25977 189.624 9.43555C189.772 9.61133 189.952 9.75 190.163 9.85156C190.374 9.94922 190.614 9.99805 190.883 9.99805C191.223 9.99805 191.526 9.92969 191.792 9.79297C192.057 9.65625 192.288 9.46289 192.483 9.21289L193.227 9.93359C193.09 10.1328 192.913 10.3242 192.694 10.5078C192.475 10.6875 192.208 10.834 191.891 10.9473C191.579 11.0605 191.215 11.1172 190.801 11.1172ZM197.894 9.72852V6.70508C197.894 6.47852 197.853 6.2832 197.771 6.11914C197.689 5.95508 197.564 5.82812 197.396 5.73828C197.232 5.64844 197.025 5.60352 196.775 5.60352C196.545 5.60352 196.345 5.64258 196.177 5.7207C196.009 5.79883 195.879 5.9043 195.785 6.03711C195.691 6.16992 195.644 6.32031 195.644 6.48828H194.238C194.238 6.23828 194.299 5.99609 194.42 5.76172C194.541 5.52734 194.716 5.31836 194.947 5.13477C195.177 4.95117 195.453 4.80664 195.773 4.70117C196.093 4.5957 196.453 4.54297 196.851 4.54297C197.328 4.54297 197.75 4.62305 198.117 4.7832C198.488 4.94336 198.779 5.18555 198.99 5.50977C199.205 5.83008 199.312 6.23242 199.312 6.7168V9.53516C199.312 9.82422 199.332 10.084 199.371 10.3145C199.414 10.541 199.474 10.7383 199.552 10.9062V11H198.105C198.039 10.8477 197.986 10.6543 197.947 10.4199C197.912 10.1816 197.894 9.95117 197.894 9.72852ZM198.099 7.14453L198.111 8.01758H197.097C196.836 8.01758 196.605 8.04297 196.406 8.09375C196.207 8.14062 196.041 8.21094 195.908 8.30469C195.775 8.39844 195.675 8.51172 195.609 8.64453C195.543 8.77734 195.509 8.92773 195.509 9.0957C195.509 9.26367 195.549 9.41797 195.627 9.55859C195.705 9.69531 195.818 9.80273 195.966 9.88086C196.119 9.95898 196.302 9.99805 196.517 9.99805C196.806 9.99805 197.058 9.93945 197.273 9.82227C197.492 9.70117 197.664 9.55469 197.789 9.38281C197.914 9.20703 197.98 9.04102 197.988 8.88477L198.445 9.51172C198.398 9.67188 198.318 9.84375 198.205 10.0273C198.091 10.2109 197.943 10.3867 197.759 10.5547C197.58 10.7188 197.363 10.8535 197.109 10.959C196.859 11.0645 196.57 11.1172 196.242 11.1172C195.828 11.1172 195.459 11.0352 195.134 10.8711C194.81 10.7031 194.556 10.4785 194.373 10.1973C194.189 9.91211 194.097 9.58984 194.097 9.23047C194.097 8.89453 194.16 8.59766 194.285 8.33984C194.414 8.07812 194.601 7.85938 194.847 7.68359C195.097 7.50781 195.402 7.375 195.761 7.28516C196.121 7.19141 196.531 7.14453 196.992 7.14453H198.099ZM202.087 5.86719V11H200.675V4.66016H202.022L202.087 5.86719ZM204.026 4.61914L204.014 5.93164C203.929 5.91602 203.835 5.9043 203.733 5.89648C203.636 5.88867 203.538 5.88477 203.44 5.88477C203.198 5.88477 202.985 5.91992 202.802 5.99023C202.618 6.05664 202.464 6.1543 202.339 6.2832C202.218 6.4082 202.124 6.56055 202.057 6.74023C201.991 6.91992 201.952 7.12109 201.94 7.34375L201.618 7.36719C201.618 6.96875 201.657 6.59961 201.735 6.25977C201.813 5.91992 201.93 5.62109 202.087 5.36328C202.247 5.10547 202.446 4.9043 202.684 4.75977C202.927 4.61523 203.206 4.54297 203.522 4.54297C203.608 4.54297 203.7 4.55078 203.798 4.56641C203.899 4.58203 203.975 4.59961 204.026 4.61914ZM206.191 6.01367V11H204.779V4.66016H206.109L206.191 6.01367ZM205.939 7.5957L205.482 7.58984C205.486 7.14062 205.549 6.72852 205.67 6.35352C205.795 5.97852 205.967 5.65625 206.185 5.38672C206.408 5.11719 206.674 4.91016 206.982 4.76562C207.291 4.61719 207.635 4.54297 208.014 4.54297C208.318 4.54297 208.594 4.58594 208.84 4.67188C209.09 4.75391 209.303 4.88867 209.478 5.07617C209.658 5.26367 209.795 5.50781 209.889 5.80859C209.982 6.10547 210.029 6.4707 210.029 6.9043V11H208.611V6.89844C208.611 6.59375 208.566 6.35352 208.476 6.17773C208.391 5.99805 208.264 5.87109 208.096 5.79688C207.932 5.71875 207.726 5.67969 207.48 5.67969C207.238 5.67969 207.021 5.73047 206.83 5.83203C206.639 5.93359 206.476 6.07227 206.344 6.24805C206.215 6.42383 206.115 6.62695 206.045 6.85742C205.975 7.08789 205.939 7.33398 205.939 7.5957Z" fill="white"/>
<line opacity="0.07" x1="219" y1="6.5" x2="335" y2="6.49999" stroke="url(#paint1_linear_30_1327)"/>
<defs>
<linearGradient id="paint0_linear_30_1327" x1="0" y1="0" x2="116" y2="0" gradientUnits="userSpaceOnUse">
<stop offset="0.5" stop-color="white"/>
<stop offset="1" stop-color="white" stop-opacity="0"/>
</linearGradient>
<linearGradient id="paint1_linear_30_1327" x1="219" y1="7" x2="335" y2="6.99999" gradientUnits="userSpaceOnUse">
<stop offset="0.5" stop-color="white"/>
<stop offset="1" stop-color="white" stop-opacity="0"/>
</linearGradient>
</defs>
</svg>
